<?xml version="1.0" encoding="UTF-8" standalone="no"?>
<!-- Created with Inkscape (http://www.inkscape.org/) -->

<svg
   id="svg1"
   sodipodi:docname="logo-light.svg"
   viewBox="0 0 165.10309 55.282823"
   sodipodi:version="0.32"
   version="1.0"
   y="0"
   x="0"
   inkscape:version="1.1.2 (b8e25be833, 2022-02-05)"
   width="165.10309"
   height="55.282822"
   xmlns:inkscape="http://www.inkscape.org/namespaces/inkscape"
   xmlns:sodipodi="http://sodipodi.sourceforge.net/DTD/sodipodi-0.dtd"
   xmlns="http://www.w3.org/2000/svg"
   xmlns:svg="http://www.w3.org/2000/svg"
   xmlns:rdf="http://www.w3.org/1999/02/22-rdf-syntax-ns#"
   xmlns:cc="http://creativecommons.org/ns#"
   xmlns:dc="http://purl.org/dc/elements/1.1/">
  <defs
     id="defs836" />
  <sodipodi:namedview
     id="base"
     bordercolor="#666666"
     inkscape:pageshadow="2"
     inkscape:window-width="1920"
     pagecolor="#ffffff"
     inkscape:zoom="3.7244128"
     inkscape:window-x="-8"
     borderopacity="1.0"
     inkscape:cx="141.23032"
     inkscape:cy="20.405901"
     inkscape:window-y="-8"
     inkscape:window-height="1017"
     inkscape:pageopacity="0.0"
     inkscape:pagecheckerboard="0"
     showgrid="false"
     inkscape:window-maximized="1"
     inkscape:current-layer="svg1" />
  <polygon
     id="polygon634"
     style="fill:#ffbe0c;fill-opacity:1;fill-rule:evenodd;stroke:#ffbe0c;stroke-width:2.33835;stroke-linecap:round;stroke-linejoin:round;stroke-miterlimit:4;stroke-dasharray:none;stroke-opacity:1"
     sodipodi:type="star"
     sodipodi:sides="5"
     sodipodi:r1="20.769526"
     sodipodi:r2="10.384763"
     sodipodi:arg1="0.78539816"
     sodipodi:arg2="1.4137167"
     sodipodi:fill-cmyk="(0 0 0 0.3)"
     transform="matrix(1.3367,0,0,1.3367,73.722718,9.1554067)"
     sodipodi:cy="14.833589"
     sodipodi:cx="-33.469929"
     sodipodi:stroke-cmyk="(0 0 0 0.8)"
     points="-18.784 29.52 -31.845 25.09 -42.899 33.339 -42.723 19.548 -53.984 11.584 -40.813 7.4904 -36.719 -5.6802 -28.755 5.5807 -14.964 5.4044 -23.213 16.458"
     inkscape:flatsided="false"
     inkscape:rounded="0"
     inkscape:randomized="0"
     d="m -18.783656,29.519861 -13.061738,-4.429363 -11.053702,8.248873 0.176276,-13.791199 -11.260927,-7.963653 13.170682,-4.0940666 4.094067,-13.170682 7.963653,11.2609269 13.791199,-0.176276 -8.248874,11.0537017 z" />
  <metadata
     id="metadata833">
    <rdf:RDF>
      <cc:Work>
        <dc:format>image/svg+xml</dc:format>
        <dc:type
           rdf:resource="http://purl.org/dc/dcmitype/StillImage" />
        <cc:license
           rdf:resource="http://creativecommons.org/licenses/publicdomain/" />
        <dc:publisher>
          <cc:Agent
             rdf:about="http://openclipart.org/">
            <dc:title>Openclipart</dc:title>
          </cc:Agent>
        </dc:publisher>
        <dc:date>2011-01-31T02:01:30</dc:date>
        <dc:description>Originally uploaded by Danny Allen for OCAL 0.18 this icon is part of the flat theme</dc:description>
        <dc:source>https://openclipart.org/detail/112507/ftfavorites-by-anonymous</dc:source>
        <dc:creator>
          <cc:Agent>
            <dc:title>Anonymous</dc:title>
          </cc:Agent>
        </dc:creator>
        <dc:subject>
          <rdf:Bag>
            <rdf:li>flat</rdf:li>
            <rdf:li>icon</rdf:li>
            <rdf:li>theme</rdf:li>
          </rdf:Bag>
        </dc:subject>
      </cc:Work>
      <cc:License
         rdf:about="http://creativecommons.org/licenses/publicdomain/">
        <cc:permits
           rdf:resource="http://creativecommons.org/ns#Reproduction" />
        <cc:permits
           rdf:resource="http://creativecommons.org/ns#Distribution" />
        <cc:permits
           rdf:resource="http://creativecommons.org/ns#DerivativeWorks" />
      </cc:License>
    </rdf:RDF>
  </metadata>
  <g
     aria-label="Favorites"
     id="text6376"
     style="font-size:40px;line-height:1.25;fill:#f9f9f9"
     transform="matrix(0.68816575,0,0,0.68816575,11.588184,6.4277457)">
    <path
       d="M 40.715113,22.222874 H 27.336206 V 27.63303 H 39.73855 v 5.625 H 27.336206 V 45.679905 H 19.875269 V 16.597874 h 20.839844 z"
       style="font-weight:bold;-inkscape-font-specification:'sans-serif, Bold';fill:#f9f9f9;fill-opacity:1"
       id="path18881" />
    <path
       d="m 58.781519,39.957249 v -4.570313 q -1.425781,0.117188 -3.085938,0.332031 -1.660156,0.195313 -2.519531,0.46875 -1.054687,0.332032 -1.621094,0.976563 -0.546875,0.625 -0.546875,1.660156 0,0.683594 0.117188,1.113281 0.117187,0.429688 0.585937,0.820313 0.449219,0.390625 1.074219,0.585937 0.625,0.175782 1.953125,0.175782 1.054688,0 2.128906,-0.429688 1.09375,-0.429687 1.914063,-1.132812 z m 0,3.398437 q -0.566406,0.429688 -1.40625,1.035156 -0.839844,0.605469 -1.582031,0.957032 -1.035157,0.46875 -2.148438,0.683593 -1.113281,0.234375 -2.441406,0.234375 -3.125,0 -5.234375,-1.933593 -2.109375,-1.933594 -2.109375,-4.941407 0,-2.402343 1.074219,-3.925781 1.074218,-1.523437 3.046875,-2.402344 1.953125,-0.878906 4.84375,-1.25 2.890625,-0.371093 5.996093,-0.546875 v -0.117187 q 0,-1.816406 -1.484375,-2.5 -1.484375,-0.703125 -4.375,-0.703125 -1.738281,0 -3.710937,0.625 -1.972656,0.605469 -2.832031,0.9375 h -0.644532 v -5.292969 q 1.113282,-0.292969 3.613282,-0.683594 2.519531,-0.410156 5.039062,-0.410156 5.996094,0 8.652344,1.855469 2.675781,1.835937 2.675781,5.78125 v 14.921875 h -6.972656 z"
       style="font-weight:bold;-inkscape-font-specification:'sans-serif, Bold';fill:#f9f9f9;fill-opacity:1"
       id="path18883" />
    <path
       d="m 94.308863,23.746311 -8.457032,21.933594 h -7.96875 L 69.484644,23.746311 h 7.441406 l 5.078125,15.078125 5.019531,-15.078125 z"
       style="font-weight:bold;-inkscape-font-specification:'sans-serif, Bold';fill:#f9f9f9;fill-opacity:1"
       id="path18885" />
    <path
       d="m 120.63699,34.722874 q 0,5.410156 -3.16406,8.535156 -3.14454,3.105469 -8.84766,3.105469 -5.70313,0 -8.867189,-3.105469 -3.144531,-3.125 -3.144531,-8.535156 0,-5.449219 3.164063,-8.554688 3.183597,-3.105469 8.847657,-3.105469 5.74219,0 8.86719,3.125 3.14453,3.125 3.14453,8.535157 z m -8.65235,5.332031 q 0.6836,-0.839844 1.01563,-2.011719 0.35156,-1.191406 0.35156,-3.28125 0,-1.933594 -0.35156,-3.242187 -0.35156,-1.308594 -0.97656,-2.089844 -0.625,-0.800781 -1.50391,-1.132813 -0.87891,-0.332031 -1.89453,-0.332031 -1.01563,0 -1.81641,0.273438 -0.78125,0.273437 -1.5039,1.09375 -0.64453,0.761718 -1.03516,2.089843 -0.37109,1.328125 -0.37109,3.339844 0,1.796875 0.33203,3.125 0.33203,1.308594 0.97656,2.109375 0.625,0.761719 1.48438,1.113281 0.8789,0.351563 1.99218,0.351563 0.95703,0 1.81641,-0.3125 0.87891,-0.332031 1.48437,-1.09375 z"
       style="font-weight:bold;-inkscape-font-specification:'sans-serif, Bold';fill:#f9f9f9;fill-opacity:1"
       id="path18887" />
    <path
       d="m 141.57449,30.44553 h -0.625 q -0.44922,-0.15625 -1.44531,-0.234375 -0.9961,-0.07813 -1.66016,-0.07813 -1.50391,0 -2.65625,0.195312 -1.15234,0.195313 -2.48047,0.664063 v 14.6875 h -7.03125 V 23.746311 h 7.03125 v 3.222656 q 2.32422,-1.992187 4.04297,-2.636718 1.71875,-0.664063 3.16406,-0.664063 0.3711,0 0.83985,0.01953 0.46875,0.01953 0.82031,0.05859 z"
       style="font-weight:bold;-inkscape-font-specification:'sans-serif, Bold';fill:#f9f9f9;fill-opacity:1"
       id="path18889" />
    <path
       d="m 152.59011,45.679905 h -7.03125 V 23.746311 h 7.03125 z m 0.19532,-25.058594 h -7.42188 V 15.28928 h 7.42188 z"
       style="font-weight:bold;-inkscape-font-specification:'sans-serif, Bold';fill:#f9f9f9;fill-opacity:1"
       id="path18891" />
    <path
       d="m 173.25418,45.484592 q -1.13282,0.292969 -2.40235,0.449219 -1.26953,0.175781 -3.10547,0.175781 -4.10156,0 -6.11328,-1.660156 -1.99219,-1.660156 -1.99219,-5.683594 V 28.511936 h -2.89062 v -4.765625 h 2.89062 V 17.47678 h 7.03125 v 6.269531 h 6.58204 v 4.765625 h -6.58204 v 7.773438 q 0,1.152343 0.0195,2.011718 0.0195,0.859375 0.3125,1.542969 0.27343,0.683594 0.95703,1.09375 0.70312,0.390625 2.03125,0.390625 0.54687,0 1.42578,-0.234375 0.89844,-0.234375 1.25,-0.429687 h 0.58594 z"
       style="font-weight:bold;-inkscape-font-specification:'sans-serif, Bold';fill:#f9f9f9;fill-opacity:1"
       id="path18893" />
    <path
       d="m 199.05496,36.011936 h -16.09375 q 0.15625,2.578125 1.95312,3.945313 1.81641,1.367187 5.33203,1.367187 2.22657,0 4.31641,-0.800781 2.08984,-0.800781 3.30078,-1.71875 h 0.78125 v 5.644531 q -2.38281,0.957031 -4.49219,1.386719 -2.10937,0.429687 -4.66797,0.429687 -6.60156,0 -10.11718,-2.96875 -3.51563,-2.96875 -3.51563,-8.457031 0,-5.429687 3.32031,-8.59375 3.33985,-3.183594 9.14063,-3.183594 5.35156,0 8.04687,2.714844 2.69532,2.695313 2.69532,7.773438 z m -6.99219,-4.121094 q -0.0586,-2.207031 -1.09375,-3.320312 -1.03516,-1.113281 -3.22266,-1.113281 -2.03125,0 -3.33984,1.054687 -1.30859,1.054688 -1.46484,3.378906 z"
       style="font-weight:bold;-inkscape-font-specification:'sans-serif, Bold';fill:#f9f9f9;fill-opacity:1"
       id="path18895" />
    <path
       d="m 223.07839,38.72678 q 0,3.398437 -3.04687,5.488281 -3.04688,2.070313 -8.33984,2.070313 -2.92969,0 -5.3125,-0.546875 -2.38282,-0.546875 -3.82813,-1.210938 v -5.78125 h 0.64453 q 0.52735,0.371094 1.21094,0.820313 0.70312,0.429687 1.97266,0.9375 1.09375,0.449218 2.48046,0.78125 1.38672,0.3125 2.96875,0.3125 2.07032,0 3.06641,-0.449219 0.99609,-0.46875 0.99609,-1.367188 0,-0.800781 -0.58593,-1.152343 -0.58594,-0.371094 -2.22657,-0.703125 -0.78125,-0.175782 -2.1289,-0.371094 -1.32813,-0.214844 -2.42188,-0.507813 -2.98828,-0.78125 -4.43359,-2.421875 -1.44531,-1.660156 -1.44531,-4.121093 0,-3.164063 2.98828,-5.253907 3.00781,-2.109375 8.20312,-2.109375 2.46094,0 4.70703,0.507813 2.26563,0.488281 3.53516,1.054687 v 5.546875 h -0.60547 q -1.5625,-1.074218 -3.57422,-1.738281 -1.99218,-0.683594 -4.04297,-0.683594 -1.69921,0 -2.87109,0.46875 -1.15234,0.46875 -1.15234,1.328125 0,0.78125 0.52734,1.191407 0.52734,0.410156 2.48047,0.820312 1.07422,0.214844 2.30469,0.429688 1.25,0.195312 2.5,0.507812 2.77343,0.722656 4.10156,2.285156 1.32812,1.542969 1.32812,3.867188 z"
       style="font-weight:bold;-inkscape-font-specification:'sans-serif, Bold';fill:#f9f9f9;fill-opacity:1"
       id="path18897" />
  </g>
</svg>
