<?xml version="1.0" encoding="UTF-8" standalone="no"?>
<!-- Created with Inkscape (http://www.inkscape.org/) -->

<svg
   width="382.07578mm"
   height="112.17142mm"
   viewBox="0 0 382.07578 112.17142"
   version="1.1"
   id="svg1154"
   inkscape:version="1.1.2 (b8e25be833, 2022-02-05)"
   sodipodi:docname="logo.svg"
   xmlns:inkscape="http://www.inkscape.org/namespaces/inkscape"
   xmlns:sodipodi="http://sodipodi.sourceforge.net/DTD/sodipodi-0.dtd"
   xmlns="http://www.w3.org/2000/svg"
   xmlns:svg="http://www.w3.org/2000/svg">
  <sodipodi:namedview
     id="namedview1156"
     pagecolor="#ffffff"
     bordercolor="#666666"
     borderopacity="1.0"
     inkscape:pageshadow="2"
     inkscape:pageopacity="0.0"
     inkscape:pagecheckerboard="0"
     inkscape:document-units="mm"
     showgrid="false"
     inkscape:zoom="0.74029882"
     inkscape:cx="696.34043"
     inkscape:cy="217.47975"
     inkscape:window-width="1920"
     inkscape:window-height="1017"
     inkscape:window-x="-8"
     inkscape:window-y="-8"
     inkscape:window-maximized="1"
     inkscape:current-layer="layer1" />
  <defs
     id="defs1151" />
  <g
     inkscape:label="Layer 1"
     inkscape:groupmode="layer"
     id="layer1"
     transform="translate(122.05956,-91.163385)">
    <polygon
       fill="#919191"
       points="290.225,85.766 222.537,85.766 223.087,24.132 429.453,24.132 429.453,85.766 359.013,85.766 359.013,266.818 290.225,266.818 "
       id="polygon2"
       style="fill:#000000"
       transform="matrix(0.26458333,0,0,0.26458333,-180.93914,86.860466)" />
    <polygon
       fill="#919191"
       points="516.402,267.368 447.613,267.368 448.714,24.132 516.402,24.132 "
       id="polygon4"
       style="fill:#000000"
       transform="matrix(0.26458333,0,0,0.26458333,-180.93914,86.860466)" />
    <rect
       x="-38.775082"
       y="116.83299"
       fill="#919191"
       width="16.161808"
       height="12.667456"
       id="rect6"
       style="fill:#000000;stroke-width:0.264583" />
    <polygon
       fill="#919191"
       points="1055.8,273.972 1025.989,273.972 1132.198,23.581 1165.862,23.581 "
       id="polygon14"
       style="fill:#000000"
       transform="matrix(0.26458333,0,0,0.26458333,-180.93914,86.860466)" />
    <path
       fill="#919191"
       d="M -18.479155,143.42362 0.39383897,141.2035 c 0.49662291,2.46698 1.33535203,4.2082 2.51645203,5.22367 1.1803063,1.016 2.6249312,1.52347 4.3336104,1.52347 3.0442956,0 5.4210476,-1.43669 7.1297266,-4.30953 1.242219,-2.11799 2.174082,-6.60162 2.796117,-13.45063 -2.268273,2.17647 -4.598194,3.7727 -6.990027,4.78843 -2.392627,1.016 -5.1572583,1.52347 -8.2946874,1.52347 -6.1206062,0 -11.2850082,-2.03094 -15.4945286,-6.09414 -4.21005,-4.06242 -6.314282,-9.19904 -6.314282,-15.4096 0,-4.23651 1.071828,-8.09652 3.215482,-11.57896 2.143654,-3.482447 5.094552,-6.11611 8.8540162,-7.900725 3.7584062,-1.784879 8.48121868,-2.677054 14.1663207,-2.677054 6.8341871,0 12.3176771,1.09564 16.4496751,3.28639 4.131204,2.191544 7.432675,5.673729 9.90256,10.447069 2.469621,4.77388 3.704431,11.07837 3.704431,18.91374 0,11.52102 -2.594239,19.95858 -7.782189,25.31269 -5.188744,5.35384 -12.380383,8.03116 -21.5757125,8.03116 -5.4369229,0 -9.7239666,-0.5879 -12.8613957,-1.76292 -3.1382229,-1.17528 -5.7478078,-2.8948 -7.8287558,-5.15831 -2.081742,-2.26325 -3.681148,-5.0927 -4.799807,-8.4881 z m 34.949871,-28.46837 c 0,-3.45308 -0.931863,-6.1595 -2.795852,-8.11848 -1.86399,-1.95871 -4.1322626,-2.9382 -6.8034959,-2.9382 -2.5164521,0 -4.6061312,0.88556 -6.26771455,2.65536 -1.66237705,1.77033 -2.49290415,4.42569 -2.49290415,7.96581 0,3.5695 0.8620125,6.29762 2.58630206,8.18357 1.72402494,1.88674 3.87508744,2.82945 6.45424574,2.82945 2.6714979,0 4.8929398,-0.91414 6.6637958,-2.74241 1.770327,-1.828 2.655623,-4.43971 2.655623,-7.8351 z"
       id="path8"
       style="fill:#000000;stroke-width:0.264583" />
    <path
       fill="#919191"
       d="m 40.404395,143.42362 18.872729,-2.22012 c 0.496358,2.46698 1.335352,4.2082 2.516452,5.22367 1.180041,1.016 2.624931,1.52347 4.33361,1.52347 3.044296,0 5.421048,-1.43669 7.129992,-4.30953 1.242218,-2.11799 2.174345,-6.60162 2.795852,-13.45063 -2.268009,2.17647 -4.597929,3.7727 -6.989763,4.78843 -2.392627,1.016 -5.157523,1.52347 -8.294952,1.52347 -6.120341,0 -11.285008,-2.03094 -15.494264,-6.09414 -4.21005,-4.06242 -6.314281,-9.19904 -6.314281,-15.4096 0,-4.23651 1.071827,-8.09652 3.215216,-11.57896 2.143654,-3.482447 5.094817,-6.11611 8.854017,-7.900725 3.758406,-1.784879 8.480954,-2.677054 14.166321,-2.677054 6.833922,0 12.317676,1.09564 16.449674,3.28639 4.131469,2.191544 7.432675,5.673729 9.902561,10.447069 2.469885,4.77388 3.704695,11.07837 3.704695,18.91374 0,11.52102 -2.594504,19.95858 -7.781924,25.31269 -5.188744,5.35384 -12.380648,8.03116 -21.575977,8.03116 -5.436659,0 -9.723967,-0.5879 -12.861396,-1.76292 -3.138223,-1.17528 -5.747808,-2.8948 -7.828756,-5.15831 -2.081742,-2.26325 -3.681413,-5.0927 -4.799806,-8.4881 z m 34.949606,-28.46837 c 0,-3.45308 -0.931863,-6.1595 -2.795588,-8.11848 -1.864254,-1.95871 -4.132262,-2.9382 -6.803496,-2.9382 -2.516452,0 -4.606131,0.88556 -6.267714,2.65536 -1.662377,1.77033 -2.493169,4.42569 -2.493169,7.96581 0,3.5695 0.862013,6.29762 2.586302,8.18357 1.72429,1.88674 3.875088,2.82945 6.453981,2.82945 2.671498,0 4.89294,-0.91414 6.663796,-2.74241 1.770592,-1.828 2.655888,-4.43971 2.655888,-7.8351 z"
       id="path10"
       style="fill:#000000;stroke-width:0.264583" />
    <path
       fill="#919191"
       d="m 151.1304,160.43448 v -11.92716 h -34.57681 v -17.60484 l 35.78887,-39.739095 h 19.69902 v 39.220505 h 8.57462 v 18.12343 h -8.57462 v 11.92716 z m 4.3688,-16.29516 v 0 11.92688 h 12.17533 v -11.92688 l 8.57409,-5.3e-4 v -9.38689 h -8.57409 V 95.531391 l -13.38633,5.29e-4 -33.36501,37.04722 v 11.56018 m 34.57733,-9.38742 h -25.3955 v 0 l 25.39418,-27.91354 m -15.5149,23.5458 h 11.1461 v -12.25259 z"
       id="path16"
       style="fill:#000000;stroke-width:0.264583" />
    <path
       fill="#919191"
       d="m 233.08985,160.43474 -3.41736,-10.53465 h -20.77878 l -3.32926,10.53465 h -26.38742 l 27.43385,-68.183389 h 25.97759 l 27.42776,68.183389 z m -0.24262,-14.90239 3.41815,10.53385 h 17.2847 L 229.63704,96.619622 h -20.075 l -23.9186,59.446578 h 16.72061 l 3.33005,-10.53385 h 25.56616 v 2.18413 l -2.07778,0.6739 2.07778,-0.6739 v -2.18413 z m -2.94958,-9.43081 h -21.02617 v 0 l 10.45713,-32.1527 m -4.44315,27.78443 h 8.97916 l -4.51299,-13.72923 z"
       id="path18"
       style="fill:#000000;stroke-width:0.264583" />
    <path
       fill="#919191"
       d="m -83.330116,187.77149 4.491831,0.44953 c -0.490802,2.38522 -1.747044,4.25238 -3.76846,5.60176 -2.021682,1.34911 -4.504267,2.02326 -7.448021,2.02326 -3.688292,0 -6.653213,-0.92868 -8.894498,-2.78606 -2.241816,-1.85764 -3.362326,-4.51961 -3.362326,-7.98698 0,-2.24181 0.48207,-4.2037 1.44648,-5.88486 0.964404,-1.68143 2.431784,-2.94269 4.402929,-3.78354 1.970617,-0.84085 4.1148,-1.26127 6.432815,-1.26127 2.926821,0 5.320506,0.57018 7.181585,1.71106 1.860815,1.14062 3.053556,2.76014 3.577961,4.85828 l -4.441032,0.52811 c -0.423068,-1.39462 -1.171575,-2.44422 -2.245783,-3.14775 -1.074473,-0.70405 -2.372519,-1.05569 -3.895196,-1.05569 -2.301081,0 -4.170627,0.63527 -5.608108,1.90633 -1.438275,1.27079 -2.157148,3.28136 -2.157148,6.03144 0,2.78977 0.693473,4.81647 2.080948,6.08065 1.386946,1.26445 3.19749,1.89654 5.430573,1.89654 1.792816,0 3.290094,-0.4236 4.491566,-1.2708 1.200944,-0.84666 1.96215,-2.15053 2.283884,-3.91001 z"
       id="path24"
       style="fill:#000000;stroke-width:0.264583" />
    <path
       fill="#919191"
       d="m -76.630602,184.99495 c 0,-3.84492 1.386946,-6.69316 4.161631,-8.54392 2.317486,-1.53803 5.142707,-2.30743 8.475927,-2.30743 3.704961,0 6.732852,0.93556 9.084469,2.80564 2.351352,1.87034 3.527425,4.45479 3.527425,7.75229 0,2.67229 -0.520171,4.77414 -1.560512,6.30555 -1.040342,1.53167 -2.554817,2.72097 -4.542367,3.56817 -1.988079,0.8472 -4.157663,1.27079 -6.509015,1.27079 -3.772958,0 -6.822281,-0.93159 -9.148497,-2.79585 -2.326217,-1.86372 -3.489061,-4.54845 -3.489061,-8.05524 z m 4.694502,0 c 0,2.65906 0.752475,4.65032 2.258484,5.97297 1.505479,1.32318 3.400425,1.98464 5.684308,1.98464 2.266685,0 4.1529,-0.6649 5.658908,-1.99443 1.505479,-1.32927 2.258483,-3.35624 2.258483,-6.08039 0,-2.56778 -0.757237,-4.513 -2.271183,-5.83644 -1.51421,-1.32265 -3.396456,-1.98438 -5.646208,-1.98438 -2.283883,0 -4.178829,0.65829 -5.684308,1.97485 -1.506009,1.31683 -2.258484,3.30438 -2.258484,5.96318 z"
       id="path26"
       style="fill:#000000;stroke-width:0.264583" />
    <path
       fill="#919191"
       d="m -46.026777,195.3772 v -20.76397 h 4.085696 v 2.91333 c 0.845608,-1.0168 1.970616,-1.83462 3.375025,-2.45375 1.404143,-0.61912 3.002756,-0.92895 4.796102,-0.92895 1.996016,0 3.632729,0.31962 4.910666,0.95806 1.277144,0.6387 2.177786,1.53167 2.702454,2.67864 2.131484,-2.42438 4.905904,-3.6367 8.323263,-3.6367 2.673085,0 4.728368,0.57018 6.166379,1.71106 1.437746,1.14062 2.1571478,2.89692 2.1571478,5.26891 v 14.25337 h -4.5423668 v -13.08047 c 0,-1.40758 -0.148431,-2.42094 -0.444235,-3.04006 -0.296069,-0.61913 -0.833438,-1.1176 -1.611313,-1.49569 -0.778404,-0.37809 -1.69201,-0.567 -2.740554,-0.567 -1.894946,0 -3.468158,0.48577 -4.719902,1.45653 -1.252008,0.97128 -1.877748,2.52571 -1.877748,4.66328 v 12.06341 h -4.567766 v -13.49084 c 0,-1.56395 -0.372269,-2.73711 -1.116542,-3.51896 -0.744538,-0.78237 -1.962679,-1.17342 -3.65416,-1.17342 -1.285875,0 -2.474384,0.26061 -3.565525,0.78184 -1.091142,0.52176 -1.882246,1.28429 -2.372784,2.28759 -0.490802,1.00409 -0.736071,2.45083 -0.736071,4.34049 v 10.77304 h -4.567766 z"
       id="path28"
       style="fill:#000000;stroke-width:0.264583" />
    <path
       fill="#919191"
       d="m -2.7345943,203.33481 v -28.72158 h 4.1618958 v 2.69796 c 0.9808104,-1.05569 2.0891499,-1.84759 3.3242249,-2.3757 1.2345458,-0.52784 2.7318229,-0.79189 4.4915666,-0.79189 2.300552,0 4.3307,0.45667 6.090444,1.36869 1.759214,0.91254 3.087158,2.19948 3.984095,3.86159 0.896409,1.66185 1.344878,3.48377 1.344878,5.4647 0,2.12461 -0.494771,4.03755 -1.484313,5.73829 -0.989806,1.701 -2.427817,3.00461 -4.314031,3.91027 -1.886479,0.90594 -3.869796,1.3589 -5.9507438,1.3589 -1.5226771,0 -2.8889854,-0.24791 -4.0983958,-0.74321 -1.209675,-0.49504 -2.2037145,-1.12051 -2.9818541,-1.87695 v 10.1084 h -4.5677666 z m 4.1364958,-18.22238 c 0,2.67229 0.7019395,4.64687 2.1063478,5.92428 1.4038792,1.27768 3.1040917,1.91612 5.1006375,1.91612 2.0301482,0 3.7684602,-0.66146 5.2149372,-1.98464 1.446477,-1.32266 2.169584,-3.37238 2.169584,-6.14892 0,-2.64583 -0.706438,-4.62677 -2.119048,-5.94387 -1.412611,-1.3163 -3.100123,-1.97458 -5.0625378,-1.97458 -1.9457458,0 -3.6668604,0.70062 -5.1641374,2.10158 -1.4970125,1.4015 -2.2457833,3.43826 -2.2457833,6.11003 z"
       id="path30"
       style="fill:#000000;stroke-width:0.264583" />
    <path
       fill="#919191"
       d="m 43.831278,195.3772 v -3.04985 c -2.097881,2.34606 -4.948502,3.51922 -8.551598,3.51922 -1.59041,0 -3.074987,-0.23468 -4.453731,-0.70379 -1.379008,-0.4691 -2.402417,-1.05886 -3.07049,-1.76953 -0.668337,-0.71041 -1.137972,-1.58062 -1.408377,-2.61012 -0.186531,-0.69056 -0.279135,-1.78567 -0.279135,-3.2848 V 174.6135 h 4.567767 v 11.51572 c 0,1.8378 0.09287,3.07631 0.279135,3.71502 0.287337,0.92551 0.896673,1.65205 1.827212,2.17963 0.930275,0.52811 2.080948,0.7919 3.451225,0.7919 1.370277,0 2.655888,-0.27014 3.857096,-0.81121 1.201209,-0.54081 2.05105,-1.27715 2.550319,-2.20954 0.49874,-0.93159 0.748771,-2.28414 0.748771,-4.05685 v -11.12494 h 4.567766 v 20.76397 z"
       id="path32"
       style="fill:#000000;stroke-width:0.264583" />
    <path
       fill="#919191"
       d="m 65.046099,192.22919 0.65987,3.10885 c -1.285875,0.20823 -2.436018,0.31301 -3.45096,0.31301 -1.658408,0 -2.943754,-0.20267 -3.85736,-0.60616 -0.913607,-0.40376 -1.556544,-0.93531 -1.928548,-1.59359 -0.372269,-0.65775 -0.558006,-2.04311 -0.558006,-4.15449 v -11.9462 H 52.56094 v -2.73711 h 3.34989 v -5.14245 l 4.542102,-2.11137 v 7.25382 h 4.593167 v 2.73711 h -4.593167 v 12.14199 c 0,1.00383 0.08017,1.64889 0.241035,1.93543 0.160338,0.28681 0.42254,0.51488 0.786871,0.68421 0.363538,0.1696 0.883709,0.25427 1.560513,0.25427 0.507471,-2.7e-4 1.175808,-0.0458 2.004748,-0.13732 z"
       id="path34"
       style="fill:#000000;stroke-width:0.264583" />
    <path
       fill="#919191"
       d="m 87.960867,188.69039 4.720431,0.44952 c -0.744802,2.12487 -2.123546,3.77376 -4.136496,4.94665 -2.013479,1.17343 -4.5847,1.75948 -7.714456,1.75948 -3.942027,0 -7.067285,-0.93503 -9.376568,-2.80564 -2.309019,-1.86981 -3.463925,-4.49342 -3.463925,-7.86924 0,-3.49302 1.167341,-6.20447 3.502025,-8.13355 2.334418,-1.92881 5.363104,-2.89401 9.084997,-2.89401 3.603361,0 6.54685,0.94535 8.830998,2.83501 2.283884,1.89018 3.425825,4.54924 3.425825,7.97718 0,0.20876 -0.0087,0.5215 -0.02566,0.93848 H 72.709755 c 0.169333,2.28124 1.006475,4.02775 2.512483,5.24007 1.505215,1.21232 3.383227,1.81822 5.633508,1.81822 1.675077,0 3.104356,-0.33867 4.288631,-1.01679 1.183746,-0.67734 2.122753,-1.75948 2.81649,-3.24538 z m -14.997377,-5.6896 h 15.048442 c -0.203465,-1.74652 -0.778669,-3.05647 -1.725877,-3.93012 -1.455209,-1.35546 -3.341159,-2.03333 -5.658909,-2.03333 -2.097881,0 -3.861593,0.54081 -5.290873,1.62269 -1.429808,1.08241 -2.220383,2.52942 -2.372783,4.34076 z"
       id="path36"
       style="fill:#000000;stroke-width:0.264583" />
    <path
       fill="#919191"
       d="m 98.365342,195.3772 v -20.76397 h 4.111098 v 3.14748 c 1.04881,-1.47267 2.01745,-2.44395 2.90539,-2.91306 0.88794,-0.46937 1.86531,-0.70405 2.93105,-0.70405 1.53908,0 3.10409,0.37835 4.6945,1.13426 l -1.57321,3.26496 c -1.11654,-0.50826 -2.23308,-0.76253 -3.34962,-0.76253 -0.99854,0 -1.89495,0.23151 -2.69002,0.69401 -0.7956,0.46302 -1.36181,1.1049 -1.70022,1.9259 -0.50747,1.25121 -0.76147,2.6199 -0.76147,4.10607 v 10.87067 h -4.567498 z"
       id="path38"
       style="fill:#000000;stroke-width:0.264583" />
  </g>
</svg>
