<?xml version="1.0" encoding="UTF-8" standalone="no"?>
<!-- Generator: Adobe Illustrator 19.0.0, SVG Export Plug-In . SVG Version: 6.00 Build 0)  -->

<svg
   height="409.388"
   width="2108.8323"
   sodipodi:docname="logo.svg"
   xml:space="preserve"
   viewBox="0 0 2108.8323 409.388"
   y="0px"
   x="0px"
   id="Layer_1"
   version="1.1"
   inkscape:version="1.1.2 (b8e25be833, 2022-02-05)"
   xmlns:inkscape="http://www.inkscape.org/namespaces/inkscape"
   xmlns:sodipodi="http://sodipodi.sourceforge.net/DTD/sodipodi-0.dtd"
   xmlns="http://www.w3.org/2000/svg"
   xmlns:svg="http://www.w3.org/2000/svg"><defs
   id="defs899" /><sodipodi:namedview
   id="namedview897"
   pagecolor="#ffffff"
   bordercolor="#666666"
   borderopacity="1.0"
   inkscape:pageshadow="2"
   inkscape:pageopacity="0.0"
   inkscape:pagecheckerboard="0"
   showgrid="false"
   inkscape:zoom="0.25"
   inkscape:cx="140"
   inkscape:cy="-304"
   inkscape:window-width="1920"
   inkscape:window-height="1017"
   inkscape:window-x="-8"
   inkscape:window-y="-8"
   inkscape:window-maximized="1"
   inkscape:current-layer="g828" />
<g
   id="g828"
   transform="translate(0,-51.306)">
	<g
   id="g826">
		<path
   d="M 495.432,136.818 H 469.244 V 59.324 c 0,-4.428 -3.589,-8.017 -8.017,-8.017 h -68.409 c -4.427,0 -8.017,3.588 -8.017,8.017 0,4.428 3.589,8.017 8.017,8.017 h 60.393 v 69.478 H 144.301 V 102.08 c 0,-9.136 -7.432,-16.568 -16.568,-16.568 H 58.789 V 67.34 h 299.825 c 4.427,0 8.017,-3.588 8.017,-8.017 0,-4.428 -3.589,-8.017 -8.017,-8.017 H 50.772 c -4.427,0 -8.017,3.588 -8.017,8.017 V 85.511 H 16.568 C 7.432,85.511 0,92.943 0,102.079 v 94.063 c 0,4.428 3.589,8.017 8.017,8.017 4.427,0 8.017,-3.588 8.017,-8.017 v -94.063 c 0,-0.294 0.239,-0.534 0.534,-0.534 h 111.165 c 0.295,0 0.534,0.241 0.534,0.534 v 42.756 c 0,4.428 3.589,8.017 8.017,8.017 h 359.148 c 0.295,0 0.534,0.24 0.534,0.534 v 290.739 c 0,0.294 -0.239,0.534 -0.534,0.534 H 16.568 c -0.295,0 -0.534,-0.241 -0.534,-0.534 V 230.347 c 0,-4.428 -3.589,-8.017 -8.017,-8.017 C 3.59,222.33 0,225.918 0,230.347 v 213.779 c 0,9.136 7.432,16.568 16.568,16.568 h 478.864 c 9.136,0 16.568,-7.432 16.568,-16.568 v -290.74 c 0,-9.136 -7.432,-16.568 -16.568,-16.568 z"
   id="path824"
   style="fill:#4d4d4d" />
	</g>
<g
   aria-label="Collections"
   id="text1803"
   style="font-size:238.002px;line-height:1.25;fill:#666666;stroke-width:5.95002"
   transform="matrix(1.1,0,0,1.1,-61.16505,-25.599999)"><path
     d="m 629.80626,347.7493 q -19.29118,0 -35.67706,-5.69439 -16.26966,-5.69438 -28.00707,-16.96694 -11.7374,-11.27255 -18.24527,-28.12328 -6.39165,-16.85073 -6.39165,-38.93099 0,-20.56951 6.15923,-37.30403 6.15923,-16.73451 17.89663,-28.70434 11.27256,-11.50498 27.89086,-17.78042 16.73452,-6.27544 36.49054,-6.27544 10.92392,0 19.63982,1.27833 8.8321,1.16212 16.26967,3.13772 7.78619,2.20802 14.06164,4.99711 6.39165,2.67287 11.15634,4.99711 v 41.9525 h -5.11332 q -3.25394,-2.78908 -8.25105,-6.62408 -4.8809,-3.83499 -11.15634,-7.55377 -6.39166,-3.71878 -13.82922,-6.27544 -7.43756,-2.55667 -15.92103,-2.55667 -9.41317,0 -17.89664,3.02151 -8.48347,2.9053 -15.68861,9.76181 -6.8565,6.62407 -11.15634,17.54799 -4.18363,10.92392 -4.18363,26.49632 0,16.26967 4.53227,27.19359 4.64847,10.92392 11.62119,17.19936 7.08892,6.39166 15.80482,9.18074 8.71589,2.67288 17.19936,2.67288 8.13483,0 16.03724,-2.44045 8.01863,-2.44045 14.75892,-6.62408 5.69438,-3.37015 10.57528,-7.20514 4.8809,-3.83499 8.01862,-6.62408 h 4.64848 v 41.37144 q -6.50787,2.9053 -12.43467,5.46196 -5.92681,2.55666 -12.43468,4.41605 -8.48347,2.44045 -15.92103,3.71878 -7.43756,1.27834 -20.4533,1.27834 z"
     style="font-weight:bold;-inkscape-font-specification:'sans-serif, Bold'"
     id="path4579" /><path
     d="m 854.90874,279.18427 q 0,32.1907 -18.82633,50.7846 -18.71012,18.4777 -52.64399,18.4777 -33.93388,0 -52.76021,-18.4777 -18.71012,-18.5939 -18.71012,-50.7846 0,-32.42313 18.82633,-50.90082 18.94254,-18.4777 52.644,-18.4777 34.1663,0 52.7602,18.59391 18.71012,18.59391 18.71012,50.78461 z m -51.48188,31.72585 q 4.06742,-4.99711 6.04302,-11.96983 2.09182,-7.08892 2.09182,-19.5236 0,-11.50498 -2.09182,-19.29118 -2.09181,-7.7862 -5.81059,-12.43467 -3.71878,-4.76469 -8.94832,-6.74029 -5.22954,-1.97561 -11.27255,-1.97561 -6.04302,0 -10.80771,1.62697 -4.64848,1.62697 -8.94832,6.50787 -3.83499,4.53226 -6.15923,12.43467 -2.20803,7.90241 -2.20803,19.87224 0,10.6915 1.9756,18.59391 1.97561,7.7862 5.8106,12.55088 3.71878,4.53227 8.83211,6.62408 5.22953,2.09182 11.85361,2.09182 5.69438,0 10.80771,-1.85939 5.22953,-1.97561 8.8321,-6.50787 z"
     style="font-weight:bold;-inkscape-font-specification:'sans-serif, Bold'"
     id="path4581" /><path
     d="M 926.72769,344.37915 H 884.8914 V 163.55341 h 41.83629 z"
     style="font-weight:bold;-inkscape-font-specification:'sans-serif, Bold'"
     id="path4583" /><path
     d="M 1008.076,344.37915 H 966.23976 V 163.55341 h 41.83624 z"
     style="font-weight:bold;-inkscape-font-specification:'sans-serif, Bold'"
     id="path4585" /><path
     d="m 1176.1185,286.85425 h -95.7586 q 0.9297,15.33998 11.6212,23.47481 10.8077,8.13483 31.7258,8.13483 13.2482,0 25.6829,-4.76468 12.4346,-4.76469 19.6398,-10.22665 h 4.6484 v 33.58524 q -14.1778,5.69438 -26.7287,8.25105 -12.5509,2.55666 -27.7746,2.55666 -39.2797,0 -60.1978,-17.66421 -20.9182,-17.66421 -20.9182,-50.31976 0,-32.30691 19.7561,-51.13324 19.8722,-18.94255 54.3871,-18.94255 31.8421,0 47.8793,16.15346 16.0373,16.03724 16.0373,46.25234 z m -41.6039,-24.52071 q -0.3486,-13.13195 -6.5078,-19.75603 -6.1593,-6.62407 -19.175,-6.62407 -12.086,0 -19.8722,6.27544 -7.7862,6.27544 -8.7159,20.10466 z"
     style="font-weight:bold;-inkscape-font-specification:'sans-serif, Bold'"
     id="path4587" /><path
     d="m 1273.6202,347.86551 q -17.0831,0 -31.261,-4.06742 -14.0616,-4.06742 -24.5207,-12.55089 -10.3428,-8.48347 -16.0372,-21.38299 -5.6944,-12.89952 -5.6944,-30.2151 0,-18.24527 6.043,-31.49342 6.1592,-13.24816 17.0832,-21.96406 10.5753,-8.25104 24.4045,-12.08603 13.8292,-3.835 28.7043,-3.835 13.3644,0 24.6369,2.9053 11.2726,2.9053 21.0344,7.55377 v 35.67706 h -5.9268 q -2.4405,-2.09181 -5.9268,-4.8809 -3.3702,-2.78908 -8.3673,-5.46196 -4.7647,-2.55666 -10.4591,-4.18363 -5.6943,-1.74318 -13.2481,-1.74318 -16.7345,0 -25.7991,10.6915 -8.9483,10.57528 -8.9483,28.82055 0,18.82633 9.1808,28.58814 9.2969,9.7618 26.2639,9.7618 7.9024,0 14.1778,-1.74318 6.3917,-1.85939 10.5753,-4.29984 3.9512,-2.32424 6.9727,-4.8809 3.0215,-2.55667 5.5782,-4.99712 h 5.9268 v 35.67706 q -9.878,4.64848 -20.6857,7.32135 -10.6915,2.78909 -23.7073,2.78909 z"
     style="font-weight:bold;-inkscape-font-specification:'sans-serif, Bold'"
     id="path4589" /><path
     d="m 1429.1118,343.21703 q -6.7403,1.74318 -14.294,2.67288 -7.5538,1.0459 -18.4777,1.0459 -24.4045,0 -36.3744,-9.87801 -11.8536,-9.87801 -11.8536,-33.81767 v -61.01125 h -17.1993 v -28.35571 h 17.1993 v -37.30402 h 41.8363 v 37.30402 h 39.1634 v 28.35571 h -39.1634 v 46.25234 q 0,6.8565 0.1162,11.96983 0.1162,5.11332 1.8594,9.18074 1.627,4.06742 5.6944,6.50787 4.1836,2.32423 12.086,2.32423 3.254,0 8.4835,-1.39454 5.3458,-1.39454 7.4376,-2.55666 h 3.4863 z"
     style="font-weight:bold;-inkscape-font-specification:'sans-serif, Bold'"
     id="path4591" /><path
     d="m 1495.9337,344.37915 h -41.8363 V 213.87317 h 41.8363 z m 1.1621,-149.09988 h -44.1605 v -31.72586 h 44.1605 z"
     style="font-weight:bold;-inkscape-font-specification:'sans-serif, Bold'"
     id="path4593" /><path
     d="m 1668.857,279.18427 q 0,32.1907 -18.8263,50.7846 -18.7101,18.4777 -52.644,18.4777 -33.9339,0 -52.7602,-18.4777 -18.7102,-18.5939 -18.7102,-50.7846 0,-32.42313 18.8264,-50.90082 18.9425,-18.4777 52.644,-18.4777 34.1663,0 52.7602,18.59391 18.7101,18.59391 18.7101,50.78461 z m -51.4819,31.72585 q 4.0674,-4.99711 6.043,-11.96983 2.0919,-7.08892 2.0919,-19.5236 0,-11.50498 -2.0919,-19.29118 -2.0918,-7.7862 -5.8106,-12.43467 -3.7187,-4.76469 -8.9483,-6.74029 -5.2295,-1.97561 -11.2725,-1.97561 -6.043,0 -10.8077,1.62697 -4.6485,1.62697 -8.9484,6.50787 -3.8349,4.53226 -6.1592,12.43467 -2.208,7.90241 -2.208,19.87224 0,10.6915 1.9756,18.59391 1.9756,7.7862 5.8106,12.55088 3.7188,4.53227 8.8321,6.62408 5.2295,2.09182 11.8536,2.09182 5.6944,0 10.8077,-1.85939 5.2296,-1.97561 8.8321,-6.50787 z"
     style="font-weight:bold;-inkscape-font-specification:'sans-serif, Bold'"
     id="path4595" /><path
     d="m 1829.9267,344.37915 h -42.0687 v -64.73004 q 0,-7.90241 -0.8135,-15.6886 -0.8135,-7.90241 -2.7891,-11.6212 -2.3242,-4.29984 -6.8565,-6.27544 -4.4161,-1.9756 -12.4347,-1.9756 -5.6944,0 -11.6212,1.85939 -5.8106,1.85939 -12.6671,5.92681 v 92.50468 h -41.8363 V 213.87317 h 41.8363 v 14.41028 q 11.1564,-8.71589 21.383,-13.36437 10.3429,-4.64848 22.8938,-4.64848 21.1505,0 33.0042,12.31847 11.9698,12.31846 11.9698,36.83917 z"
     style="font-weight:bold;-inkscape-font-specification:'sans-serif, Bold'"
     id="path4597" /><path
     d="m 1981.8157,303.00771 q 0,20.22087 -18.1291,32.65555 -18.129,12.31846 -49.6225,12.31846 -17.4317,0 -31.6096,-3.25393 -14.1778,-3.25394 -22.7775,-7.20514 v -34.39873 h 3.835 q 3.1377,2.20803 7.2051,4.8809 4.1836,2.55666 11.7374,5.57817 6.5079,2.67288 14.7589,4.64848 8.2511,1.85939 17.6642,1.85939 12.3185,0 18.2453,-2.67287 5.9268,-2.78909 5.9268,-8.13484 0,-4.76469 -3.4863,-6.8565 -3.4864,-2.20803 -13.2482,-4.18363 -4.6485,-1.04591 -12.6671,-2.20803 -7.9024,-1.27833 -14.4103,-3.02151 -17.7804,-4.64847 -26.3801,-14.41027 -8.5997,-9.87802 -8.5997,-24.52072 0,-18.82633 17.7805,-31.261 17.8966,-12.55089 48.809,-12.55089 14.6427,0 28.007,3.02151 13.4806,2.9053 21.0344,6.27545 v 33.00418 h -3.6026 q -9.2969,-6.39166 -21.2668,-10.34286 -11.8536,-4.06742 -24.0558,-4.06742 -10.1105,0 -17.0832,2.78909 -6.8565,2.78908 -6.8565,7.90241 0,4.64847 3.1377,7.08892 3.1378,2.44045 14.759,4.8809 6.3916,1.27834 13.713,2.55667 7.4375,1.16212 14.8751,3.02151 16.5021,4.29984 24.4045,13.59679 7.9024,9.18074 7.9024,23.00996 z"
     style="font-weight:bold;-inkscape-font-specification:'sans-serif, Bold'"
     id="path4599" /></g></g>
<g
   id="g834"
   transform="translate(0,-51.306)">
	<g
   id="g832">
		<path
   d="m 311.582,337.77 c -13.851,0 -25.119,11.268 -25.119,25.119 0,13.851 11.268,25.119 25.119,25.119 13.851,0 25.119,-11.268 25.119,-25.119 0,-13.85 -11.268,-25.119 -25.119,-25.119 z m 0,34.205 c -5.01,0 -9.086,-4.076 -9.086,-9.086 0,-5.01 4.076,-9.086 9.086,-9.086 5.01,0 9.086,4.076 9.086,9.086 0,5.01 -4.076,9.086 -9.086,9.086 z"
   id="path830"
   style="fill:#4d4d4d" />
	</g>
</g>
<g
   id="g840"
   transform="translate(0,-51.306)">
	<g
   id="g838">
		<path
   d="m 345.787,295.015 c -13.851,0 -25.119,11.268 -25.119,25.119 0,13.851 11.268,25.119 25.119,25.119 13.851,0 25.119,-11.268 25.119,-25.119 0,-13.851 -11.268,-25.119 -25.119,-25.119 z m 0,34.204 c -5.01,0 -9.086,-4.076 -9.086,-9.086 0,-5.01 4.076,-9.086 9.086,-9.086 5.01,0 9.086,4.076 9.086,9.086 0,5.011 -4.076,9.086 -9.086,9.086 z"
   id="path836"
   style="fill:#4d4d4d" />
	</g>
</g>
<g
   id="g846"
   transform="translate(0,-51.306)">
	<g
   id="g844">
		<path
   d="m 204.693,333.495 h -17.637 v -17.637 c 0,-4.428 -3.589,-8.017 -8.017,-8.017 -4.428,0 -8.017,3.588 -8.017,8.017 v 17.637 h -17.637 c -4.427,0 -8.017,3.588 -8.017,8.017 0,4.428 3.589,8.017 8.017,8.017 h 17.637 v 17.637 c 0,4.428 3.589,8.017 8.017,8.017 4.428,0 8.017,-3.588 8.017,-8.017 v -17.637 h 17.637 c 4.427,0 8.017,-3.588 8.017,-8.017 0,-4.429 -3.59,-8.017 -8.017,-8.017 z"
   id="path842"
   style="fill:#4d4d4d" />
	</g>
</g>
<g
   id="g852"
   transform="translate(0,-51.306)">
	<g
   id="g850">
		<path
   d="m 256,299.29 h -17.102 c -4.427,0 -8.017,3.588 -8.017,8.017 0,4.428 3.589,8.017 8.017,8.017 H 256 c 4.427,0 8.017,-3.588 8.017,-8.017 0,-4.429 -3.59,-8.017 -8.017,-8.017 z"
   id="path848"
   style="fill:#4d4d4d" />
	</g>
</g>
<g
   id="g858"
   transform="translate(0,-51.306)">
	<g
   id="g856">
		<path
   d="m 256,333.495 h -17.102 c -4.427,0 -8.017,3.588 -8.017,8.017 0,4.428 3.589,8.017 8.017,8.017 H 256 c 4.427,0 8.017,-3.588 8.017,-8.017 0,-4.429 -3.59,-8.017 -8.017,-8.017 z"
   id="path854"
   style="fill:#4d4d4d" />
	</g>
</g>
<g
   id="g864"
   transform="translate(0,-51.306)">
	<g
   id="g862">
		<path
   d="m 340.977,265.509 v -18.06 c 0,-4.428 -3.589,-8.017 -8.017,-8.017 h -51.307 c -4.427,0 -8.017,3.588 -8.017,8.017 v 17.637 h -9.62 v -35.273 h 90.321 c 6.778,0 12.292,-5.514 12.292,-12.292 v -29.929 c 0,-4.428 -3.589,-8.017 -8.017,-8.017 -4.428,0 -8.017,3.588 -8.017,8.017 v 26.188 h -90.322 c -6.778,0 -12.292,5.514 -12.292,12.292 v 39.015 h -9.62 V 247.45 c 0,-4.428 -3.589,-8.017 -8.017,-8.017 H 179.04 c -4.427,0 -8.017,3.588 -8.017,8.017 v 18.06 c -38.387,4.02 -68.409,36.57 -68.409,76.003 0,42.141 34.285,76.426 76.426,76.426 25.606,0 49.593,-12.992 63.689,-34.205 h 26.543 c 14.096,21.212 38.083,34.205 63.689,34.205 42.141,0 76.426,-34.285 76.426,-76.426 -10e-4,-39.435 -30.023,-71.984 -68.41,-76.004 z M 289.67,255.466 h 35.273 v 9.62 H 289.67 Z m -102.614,0 h 35.273 v 9.62 H 187.056 Z M 332.96,401.904 c -21.475,0 -41.514,-11.573 -52.296,-30.204 -1.433,-2.476 -4.077,-4.001 -6.938,-4.001 h -35.452 c -2.861,0 -5.505,1.525 -6.938,4.001 -10.783,18.631 -30.822,30.204 -52.297,30.204 -33.3,0 -60.393,-27.092 -60.393,-60.393 0,-33.301 27.092,-60.392 60.393,-60.392 H 332.96 c 33.3,0 60.393,27.092 60.393,60.392 0,33.3 -27.092,60.393 -60.393,60.393 z"
   id="path860"
   style="fill:#4d4d4d" />
	</g>
</g>
<g
   id="g866"
   transform="translate(0,-51.306)">
</g>
<g
   id="g868"
   transform="translate(0,-51.306)">
</g>
<g
   id="g870"
   transform="translate(0,-51.306)">
</g>
<g
   id="g872"
   transform="translate(0,-51.306)">
</g>
<g
   id="g874"
   transform="translate(0,-51.306)">
</g>
<g
   id="g876"
   transform="translate(0,-51.306)">
</g>
<g
   id="g878"
   transform="translate(0,-51.306)">
</g>
<g
   id="g880"
   transform="translate(0,-51.306)">
</g>
<g
   id="g882"
   transform="translate(0,-51.306)">
</g>
<g
   id="g884"
   transform="translate(0,-51.306)">
</g>
<g
   id="g886"
   transform="translate(0,-51.306)">
</g>
<g
   id="g888"
   transform="translate(0,-51.306)">
</g>
<g
   id="g890"
   transform="translate(0,-51.306)">
</g>
<g
   id="g892"
   transform="translate(0,-51.306)">
</g>
<g
   id="g894"
   transform="translate(0,-51.306)">
</g>
</svg>
