<?xml version="1.0" encoding="UTF-8" standalone="no"?>
<!-- Generator: Adobe Illustrator 18.1.1, SVG Export Plug-In . SVG Version: 6.00 Build 0)  -->

<svg
   version="1.1"
   id="Capa_1"
   x="0px"
   y="0px"
   viewBox="0 0 1035.3424 407.53115"
   xml:space="preserve"
   sodipodi:docname="logo-light.svg"
   width="1035.3424"
   height="407.53116"
   inkscape:version="1.1.2 (b8e25be833, 2022-02-05)"
   xmlns:inkscape="http://www.inkscape.org/namespaces/inkscape"
   xmlns:sodipodi="http://sodipodi.sourceforge.net/DTD/sodipodi-0.dtd"
   xmlns="http://www.w3.org/2000/svg"
   xmlns:svg="http://www.w3.org/2000/svg"><defs
   id="defs914"><linearGradient
     id="linearGradient1556"
     inkscape:swatch="solid"><stop
       style="stop-color:#003e47;stop-opacity:1;"
       offset="0"
       id="stop1554" /></linearGradient></defs><sodipodi:namedview
   id="namedview912"
   pagecolor="#ffffff"
   bordercolor="#666666"
   borderopacity="1.0"
   inkscape:pageshadow="2"
   inkscape:pageopacity="0.0"
   inkscape:pagecheckerboard="0"
   showgrid="false"
   inkscape:zoom="0.4700973"
   inkscape:cx="1048.7191"
   inkscape:cy="423.31662"
   inkscape:window-width="1920"
   inkscape:window-height="1017"
   inkscape:window-x="-8"
   inkscape:window-y="-8"
   inkscape:window-maximized="1"
   inkscape:current-layer="g879" />
<g
   id="g879"
   transform="translate(39.873607,113.05844)">
	<g
   id="Layer_5_73_"
   transform="rotate(15.589851,463.9224,38.951571)"
   style="fill:#f9f9f9">
		<g
   id="g876"
   style="fill:#f9f9f9">
			<path
   d="M 324.658,20.572 V 17.634 C 324.658,7.935 316.724,0 307.025,0 H 40.313 C 30.614,0 22.678,7.935 22.678,17.634 v 2.938 c 0,9.699 7.935,17.634 17.635,17.634 h 6.814 c 3.5,0 3.223,3.267 3.223,4.937 0,19.588 8.031,42.231 14.186,56.698 12.344,29.012 40.447,52.813 63.516,69.619 4.211,3.068 3.201,5.916 0.756,7.875 -22.375,17.924 -51.793,40.832 -64.271,70.16 -6.059,14.239 -13.934,36.4 -14.18,55.772 -0.025,1.987 0.771,5.862 -3.979,5.862 h -6.064 c -9.699,0 -17.635,7.936 -17.635,17.634 v 2.94 c 0,9.698 7.935,17.634 17.635,17.634 h 266.713 c 9.699,0 17.633,-7.936 17.633,-17.634 v -2.94 c 0,-9.698 -7.934,-17.634 -17.633,-17.634 h -3.816 c -7,0 -6.326,-5.241 -6.254,-7.958 0.488,-18.094 -4.832,-38.673 -12.617,-54.135 -17.318,-34.389 -44.629,-56.261 -61.449,-68.915 -3.65,-2.745 -4.018,-6.143 0,-8.906 17.342,-11.929 44.131,-34.526 61.449,-68.916 8.289,-16.464 13.785,-38.732 12.447,-57.621 -0.105,-1.514 -0.211,-4.472 3.758,-4.472 h 6.482 c 9.698,0 17.631,-7.934 17.631,-17.634 z m -54.387,72.644 c -16.113,31.998 -41.967,54.881 -64.455,68.67 -1.354,0.831 -3.936,2.881 -3.936,8.602 v 6.838 c 0,6.066 2.752,7.397 4.199,8.286 22.486,13.806 48.143,36.636 64.191,68.508 7.414,14.727 11.266,32.532 10.885,46.702 -0.078,2.947 1.053,8.308 -6.613,8.308 H 72.627 c -6.75,0 -6.475,-3.37 -6.459,-5.213 0.117,-12.895 4.563,-30.757 12.859,-50.255 14.404,-33.854 44.629,-54.988 64.75,-67.577 0.896,-0.561 2.629,-1.567 2.629,-6.922 v -10.236 c 0,-5.534 -2.656,-7.688 -4.057,-8.57 C 122.251,147.669 93.093,126.739 79.027,93.676 70.644,73.974 66.193,55.944 66.166,43.019 c -0.002,-1.694 0.211,-4.812 3.961,-4.812 h 206.582 c 4.168,0 4.127,3.15 4.264,4.829 1.183,14.645 -2.666,34.221 -10.702,50.18 z"
   id="path870"
   style="fill:#f9f9f9;fill-opacity:1" />
			<path
   d="m 169.541,196.2 -68.748,86.03 c -2.27,2.842 -1.152,5.166 2.484,5.166 h 140.781 c 3.637,0 4.756,-2.324 2.484,-5.166 L 177.796,196.2 c -2.271,-2.842 -5.985,-2.842 -8.255,0 z"
   id="path872"
   style="fill:#f9f9f9;fill-opacity:1" />
			<path
   d="m 168.986,156.219 c 2.576,2.568 6.789,2.568 9.363,0 l 34.576,-34.489 c 2.574,-2.568 1.707,-4.67 -1.932,-4.67 H 136.34 c -3.637,0 -4.506,2.102 -1.932,4.67 z"
   id="path874"
   style="fill:#f9f9f9;fill-opacity:1" />
		</g>
	</g>
<g
   aria-label="Recently played"
   id="text2368"
   style="font-size:228.858px;line-height:1.25;fill:#666666;stroke-width:5.72146"
   transform="translate(10,-67.631708)"><path
     d="m 373.57538,131.22409 q 0,-5.00307 -2.05484,-8.57669 -2.05483,-3.57363 -7.05789,-5.62846 -3.48429,-1.42944 -8.13,-1.69746 -4.6457,-0.35737 -10.8102,-0.35737 h -12.41834 v 35.82556 h 10.54219 q 8.21933,0 13.75844,-0.80406 5.53912,-0.80407 9.29142,-3.66297 3.57362,-2.76955 5.18175,-6.07515 1.69747,-3.39494 1.69747,-9.0234 z m 53.51499,92.28879 h -41.90072 l -36.27226,-48.77994 h -15.81328 v 48.77994 H 298.97602 V 90.484801 h 57.53532 q 11.79295,0 20.2803,1.340108 8.48735,1.340108 15.90262,5.807136 7.5046,4.467025 11.88229,11.614275 4.46702,7.0579 4.46702,17.77876 0,14.7412 -6.87921,24.03262 -6.78989,9.29141 -19.47624,15.45591 z"
     style="font-weight:bold;-inkscape-font-specification:'sans-serif, Bold';fill:#ffffff;stroke-width:4.57424"
     id="path13759" /><path
     d="m 539.12343,179.28931 h -73.61662 q 0.71473,11.79295 8.93406,18.04679 8.30866,6.25383 24.38997,6.25383 10.18482,0 19.74426,-3.66296 9.55944,-3.66296 15.09855,-7.86197 h 3.57362 v 25.81942 q -10.89954,4.37769 -20.54833,6.34319 -9.64877,1.96548 -21.35239,1.96548 -30.1971,0 -46.2784,-13.57976 -16.0813,-13.57976 -16.0813,-38.68445 0,-24.83668 15.1879,-39.30985 15.27723,-14.56251 41.81137,-14.56251 24.47931,0 36.80831,12.41834 12.329,12.32899 12.329,35.55754 z M 507.1395,160.43845 q -0.26802,-10.09548 -5.00306,-15.18789 -4.73506,-5.09242 -14.7412,-5.09242 -9.29141,0 -15.27723,4.82439 -5.98582,4.8244 -6.70054,15.45592 z"
     style="font-weight:bold;-inkscape-font-specification:'sans-serif, Bold';fill:#ffffff;stroke-width:4.57424"
     id="path13761" /><path
     d="m 614.08013,226.19309 q -13.13306,0 -24.03261,-3.12692 -10.81021,-3.12691 -18.85085,-9.64877 -7.95131,-6.52187 -12.329,-16.43866 -4.37769,-9.9168 -4.37769,-23.22855 0,-14.02646 4.64571,-24.21128 4.73505,-10.18483 13.13306,-16.88537 8.12999,-6.34318 18.76152,-9.29142 10.63152,-2.94823 22.06711,-2.94823 10.27417,0 18.9402,2.23351 8.66603,2.23351 16.17064,5.80714 v 27.42755 h -4.55637 q -1.87615,-1.60814 -4.55637,-3.75231 -2.59087,-2.14417 -6.43252,-4.199 -3.66296,-1.9655 -8.04065,-3.21627 -4.37768,-1.3401 -10.18482,-1.3401 -12.86504,0 -19.8336,8.21933 -6.87923,8.12999 -6.87923,22.15645 0,14.47317 7.05791,21.97778 7.14724,7.50461 20.19096,7.50461 6.07516,0 10.89955,-1.34011 4.91373,-1.42945 8.12999,-3.3056 3.03758,-1.78681 5.36043,-3.75231 2.32286,-1.96549 4.28835,-3.84164 h 4.55637 v 27.42755 q -7.59395,3.57362 -15.90262,5.62845 -8.21933,2.14417 -18.22547,2.14417 z"
     style="font-weight:bold;-inkscape-font-specification:'sans-serif, Bold';fill:#ffffff;stroke-width:4.57424"
     id="path13763" /><path
     d="m 768.28194,179.28931 h -73.61662 q 0.71473,11.79295 8.93406,18.04679 8.30867,6.25383 24.38997,6.25383 10.18482,0 19.74426,-3.66296 9.55944,-3.66296 15.09855,-7.86197 h 3.57362 v 25.81942 q -10.89954,4.37769 -20.54833,6.34319 -9.64877,1.96548 -21.35239,1.96548 -30.1971,0 -46.2784,-13.57976 -16.0813,-13.57976 -16.0813,-38.68445 0,-24.83668 15.1879,-39.30985 15.27723,-14.56251 41.81137,-14.56251 24.47932,0 36.80831,12.41834 12.329,12.32899 12.329,35.55754 z m -31.98392,-18.85086 q -0.26803,-10.09548 -5.00307,-15.18789 -4.73505,-5.09242 -14.7412,-5.09242 -9.29141,0 -15.27723,4.82439 -5.98581,4.8244 -6.70054,15.45592 z"
     style="font-weight:bold;-inkscape-font-specification:'sans-serif, Bold';fill:#ffffff;stroke-width:4.57424"
     id="path13765" /><path
     d="m 891.75061,223.51288 h -32.34129 v -49.76269 q 0,-6.07516 -0.62539,-12.06097 -0.62538,-6.07516 -2.14417,-8.93406 -1.78681,-3.3056 -5.27109,-4.82438 -3.39495,-1.51879 -9.55945,-1.51879 -4.37768,0 -8.93405,1.42944 -4.46703,1.42945 -9.73811,4.55637 v 71.11508 H 790.97445 V 123.18344 h 32.16261 v 11.07823 q 8.57668,-6.70054 16.43866,-10.27417 7.95131,-3.57361 17.60008,-3.57361 16.25996,0 25.37269,9.47009 9.20212,9.4701 9.20212,28.32096 z"
     style="font-weight:bold;-inkscape-font-specification:'sans-serif, Bold';fill:#ffffff;stroke-width:4.57424"
     id="path13767" /><path
     d="m 985.46879,222.61947 q -5.18173,1.34011 -10.9889,2.05483 -5.80709,0.80407 -14.20516,0.80407 -18.76145,0 -27.96356,-7.59395 -9.11274,-7.59395 -9.11274,-25.99809 v -46.9038 H 909.976 v -21.79909 h 13.22243 V 94.505126 h 32.16264 v 28.678314 h 30.10772 v 21.79909 h -30.10772 v 35.55755 q 0,5.27109 0.0893,9.20207 0.0893,3.93099 1.42949,7.05791 1.25072,3.12691 4.37768,5.00306 3.21627,1.78681 9.29142,1.78681 2.50152,0 6.52183,-1.07208 4.1097,-1.07209 5.71779,-1.96549 h 2.68021 z"
     style="font-weight:bold;-inkscape-font-specification:'sans-serif, Bold';fill:#ffffff;stroke-width:4.57424"
     id="path13769" /></g></g>
<g
   id="g881"
   transform="translate(39.873607,113.05844)">
</g>
<g
   id="g883"
   transform="translate(39.873607,113.05844)">
</g>
<g
   id="g885"
   transform="translate(39.873607,113.05844)">
</g>
<g
   id="g887"
   transform="translate(39.873607,113.05844)">
</g>
<g
   id="g889"
   transform="translate(39.873607,113.05844)">
</g>
<g
   id="g891"
   transform="translate(39.873607,113.05844)">
</g>
<g
   id="g893"
   transform="translate(39.873607,113.05844)">
</g>
<g
   id="g895"
   transform="translate(39.873607,113.05844)">
</g>
<g
   id="g897"
   transform="translate(39.873607,113.05844)">
</g>
<g
   id="g899"
   transform="translate(39.873607,113.05844)">
</g>
<g
   id="g901"
   transform="translate(39.873607,113.05844)">
</g>
<g
   id="g903"
   transform="translate(39.873607,113.05844)">
</g>
<g
   id="g905"
   transform="translate(39.873607,113.05844)">
</g>
<g
   id="g907"
   transform="translate(39.873607,113.05844)">
</g>
<g
   id="g909"
   transform="translate(39.873607,113.05844)">
</g>
</svg>
