<?xml version="1.0" encoding="UTF-8" standalone="no"?>
<!-- Created with Inkscape (http://www.inkscape.org/) -->

<svg
   width="200.49741mm"
   height="41.873493mm"
   viewBox="0 0 200.49741 41.873493"
   version="1.1"
   id="svg5"
   inkscape:version="1.1.2 (b8e25be833, 2022-02-05)"
   sodipodi:docname="logo-light.svg"
   xmlns:inkscape="http://www.inkscape.org/namespaces/inkscape"
   xmlns:sodipodi="http://sodipodi.sourceforge.net/DTD/sodipodi-0.dtd"
   xmlns="http://www.w3.org/2000/svg"
   xmlns:svg="http://www.w3.org/2000/svg">
  <sodipodi:namedview
     id="namedview7"
     pagecolor="#ffffff"
     bordercolor="#666666"
     borderopacity="1.0"
     inkscape:pageshadow="2"
     inkscape:pageopacity="0.0"
     inkscape:pagecheckerboard="0"
     inkscape:document-units="mm"
     showgrid="false"
     inkscape:zoom="1.4805976"
     inkscape:cx="380.92726"
     inkscape:cy="73.61892"
     inkscape:window-width="1920"
     inkscape:window-height="1017"
     inkscape:window-x="-8"
     inkscape:window-y="-8"
     inkscape:window-maximized="1"
     inkscape:current-layer="g2496" />
  <defs
     id="defs2" />
  <g
     inkscape:label="Layer 1"
     inkscape:groupmode="layer"
     id="layer1"
     transform="translate(-6.2433524,-48.147242)">
    <g
       id="g2496"
       transform="translate(-3.5814466,-56.436475)">
      <path
         style="fill:#d971a1;stroke-width:0.264583"
         d="m 164.48698,145.13989 c -0.96156,-0.75636 -0.91609,-1.95001 0.20857,-5.47579 0.49814,-1.56166 1.10685,-3.57536 1.35269,-4.47488 0.58782,-2.15081 1.33709,-2.86242 3.01392,-2.86242 1.79165,0 2.2237,0.44038 2.0664,2.10627 -0.0692,0.73332 -0.22041,1.55916 -0.33594,1.83519 -0.11889,0.28407 0.64115,-0.18583 1.7514,-1.08281 1.0788,-0.87158 2.39589,-1.84383 2.92689,-2.16057 1.34847,-0.80437 3.83744,-1.62412 4.93122,-1.62412 h 0.91903 l -0.12969,1.12448 c -0.14215,1.23252 -2.23929,6.81302 -2.56032,6.81302 -0.10989,0 -0.35869,-0.29687 -0.55287,-0.65971 -0.87744,-1.6395 -2.92715,-1.85363 -5.16875,-0.53996 -1.49653,0.87703 -2.41369,1.98492 -3.82344,4.61861 -0.92564,1.72926 -1.37399,2.29429 -2.04203,2.57341 -1.17721,0.49187 -1.74295,0.44967 -2.55708,-0.19072 z m -51.26631,-0.44382 c -0.3291,-0.41964 -0.31975,-0.429 0.0999,-0.0999 0.44073,0.34565 0.58089,0.56292 0.36312,0.56292 -0.0549,0 -0.2633,-0.20836 -0.46302,-0.46302 z m 43.44631,-5.77673 c 0.0127,-0.30823 0.0754,-0.37092 0.15985,-0.15986 0.0764,0.191 0.067,0.4192 -0.0209,0.50712 -0.0879,0.0879 -0.15046,-0.0683 -0.13897,-0.34726 z m 5.55625,-2.38125 c 0.0127,-0.30823 0.0754,-0.37092 0.15985,-0.15986 0.0764,0.191 0.067,0.4192 -0.0209,0.50712 -0.0879,0.0879 -0.15046,-0.0684 -0.13897,-0.34726 z m 20.40361,-21.67379 c 0.005,-0.43656 0.0647,-0.58312 0.13177,-0.32569 0.0671,0.25743 0.0627,0.61462 -0.01,0.79375 -0.0725,0.17913 -0.12735,-0.0315 -0.12196,-0.46806 z m 27.50686,-3.04271 c 0,-0.3638 0.0601,-0.51263 0.13345,-0.33073 0.0734,0.1819 0.0734,0.47956 0,0.66146 -0.0734,0.1819 -0.13345,0.0331 -0.13345,-0.33073 z m -89.27251,-5.22081 c 0.61847,-0.0557 1.6305,-0.0557 2.24896,0 0.61847,0.0557 0.11245,0.10128 -1.12448,0.10128 -1.23692,0 -1.74294,-0.0456 -1.12448,-0.10128 z m -54.897399,-1.58363 c 0.402183,-0.0608 0.997495,-0.0592 1.322917,0.004 0.325421,0.0628 -0.0036,0.11256 -0.731242,0.11058 -0.727605,-0.002 -0.993857,-0.0534 -0.591675,-0.11419 z m 6.20817,-0.001 c 0.469697,-0.0584 1.303134,-0.0594 1.852084,-0.002 0.548947,0.0573 0.16465,0.10509 -0.853996,0.10627 -1.018646,0.001 -1.467787,-0.0457 -0.998088,-0.10414 z m 7.154389,-7.9e-4 c 0.475549,-0.0589 1.189924,-0.0577 1.5875,0.003 0.397577,0.0604 0.0085,0.10855 -0.864634,0.10706 -0.873125,-0.001 -1.198414,-0.0509 -0.722866,-0.10976 z"
         id="path2506" />
      <path
         style="fill:#f49f22;stroke-width:0.264583"
         d="m 116.29713,146.2346 c -2.26959,-0.55253 -3.90805,-2.17371 -4.34657,-4.30073 -0.35297,-1.71207 -0.0278,-4.71777 0.66933,-6.18685 1.00958,-2.12754 3.40985,-3.72073 6.27076,-4.16223 1.62863,-0.25133 1.62703,-0.0665 -0.0386,4.4588 -1.8119,4.92284 -1.11972,7.51884 2.12151,7.95659 0.97123,0.13117 1.49343,0.0428 2.43149,-0.41126 1.65232,-0.79987 2.40586,-2.35173 2.38577,-4.91331 -0.0188,-2.39252 -0.58364,-3.62604 -1.97594,-4.3149 -0.82231,-0.40684 -0.96345,-0.57369 -0.68252,-0.80685 0.69622,-0.5778 2.717,-1.12618 4.32675,-1.17415 1.78783,-0.0533 2.81362,0.44958 3.45232,1.69239 0.45542,0.88617 0.41512,4.10531 -0.0719,5.74539 -0.54743,1.84342 -2.66151,4.01341 -4.95612,5.08718 -2.76389,1.29338 -7.20537,1.90956 -9.58628,1.32993 z"
         id="path2504" />
      <path
         style="fill:#3093d2;stroke-width:0.264583"
         d="m 99.099216,146.32892 c -0.291041,-0.0642 -1.18401,-0.24883 -1.984375,-0.41031 -4.099758,-0.82719 -6.803792,-3.56204 -7.671737,-7.75918 -0.985784,-4.76699 1.579116,-8.90299 7.224083,-11.6491 3.912183,-1.90317 6.123883,-2.34723 10.891103,-2.1867 2.18699,0.0737 4.19448,0.22434 4.46109,0.33487 0.42575,0.1765 0.46225,0.39777 0.29996,1.81797 -0.28612,2.50363 -1.13723,5.5267 -1.72009,6.10955 -0.77482,0.77482 -1.25643,0.32576 -2.28077,-2.12664 -1.15441,-2.76379 -1.87596,-3.40496 -3.60177,-3.20057 -3.78182,0.4479 -7.220557,3.72058 -8.503183,8.09257 -0.526161,1.79349 -0.530108,2.73171 -0.01876,4.45365 0.781098,2.63024 2.70554,3.74088 5.565783,3.21214 1.928,-0.35642 3.36172,-1.06704 4.78938,-2.37387 1.06582,-0.97562 2.64994,-1.55282 3.24773,-1.18336 0.94766,0.58568 -0.33969,3.21715 -2.20102,4.49909 -2.13911,1.47326 -6.74214,2.75702 -8.497438,2.36989 z m 47.741094,-0.20806 c -1.63179,-0.44003 -2.78907,-1.31456 -3.49051,-2.63769 -0.48979,-0.92394 -0.58206,-1.51408 -0.57043,-3.64876 0.0121,-2.22296 0.10607,-2.735 0.73941,-4.0295 0.39904,-0.81561 1.16445,-1.84497 1.7009,-2.28746 1.12958,-0.93171 3.16463,-1.75471 4.67378,-1.89011 1.42845,-0.12817 1.46651,0.2956 0.29044,3.23399 -2.39764,5.99045 -1.63629,9.09832 2.22886,9.09832 2.34428,0 3.75524,-1.23567 4.20791,-3.68514 0.52317,-2.83099 -0.54259,-5.69738 -2.28052,-6.13357 -1.26976,-0.31869 0.38356,-1.26908 2.90975,-1.67264 2.23501,-0.35704 3.49331,0.0211 4.37186,1.31371 0.57191,0.84148 0.62009,1.14347 0.52763,3.30729 -0.0863,2.01932 -0.21942,2.59675 -0.87587,3.7991 -0.42576,0.77982 -1.25416,1.83641 -1.84088,2.34798 -2.90992,2.53723 -8.84146,3.89594 -12.59233,2.88448 z"
         id="path2502" />
      <path
         style="fill:#989898;stroke-width:0.264583"
         d="m 60.433343,117.17941 c 0.07218,-0.25467 0.641509,-2.63987 1.265169,-5.30046 l 1.133925,-4.83744 1.177329,-0.91725 c 0.972744,-0.75786 1.399675,-0.91725 2.456829,-0.91725 0.703723,0 1.278387,0.0893 1.277032,0.19844 -0.0013,0.10914 -0.528208,2.4001 -1.170786,5.09102 -0.642578,2.69092 -1.127067,4.93383 -1.076643,4.98426 0.05043,0.0504 0.620567,-0.21826 1.266979,-0.59709 l 1.175295,-0.68877 0.996336,-3.76632 c 1.276644,-4.82594 1.591244,-5.22154 4.15245,-5.22154 0.991421,0 1.802583,0.10625 1.802583,0.2361 0,0.12986 -0.526794,2.42088 -1.170652,5.09115 -0.643858,2.67028 -1.138772,4.88694 -1.099812,4.9259 0.03896,0.039 0.612677,-0.34288 1.274919,-0.84854 1.189069,-0.90793 1.212704,-0.95661 1.89593,-3.90523 0.380516,-1.64221 0.690785,-3.1105 0.689483,-3.26287 -0.0013,-0.15237 0.449135,-0.71792 1.000974,-1.25677 0.919951,-0.89831 1.128863,-0.97974 2.513542,-0.97974 0.879147,0 1.510199,0.11618 1.510199,0.27804 0,0.23887 -1.343244,5.75108 -2.138571,8.77596 -0.188087,0.71535 -0.660731,1.31164 -1.73019,2.18281 l -1.471414,1.19861 h -7.931076 c -7.427013,0 -7.922734,-0.0294 -7.79983,-0.46302 z m 20.371094,-0.16447 c -0.711639,-0.61213 -0.721862,-0.66056 -0.417658,-1.97845 0.55825,-2.41847 0.995844,-3.12633 2.715083,-4.39196 l 1.635776,-1.20419 h 4.426339 4.426342 l 0.307051,0.67391 c 0.421931,0.92604 0.390382,1.38182 -0.236035,3.40992 -0.527724,1.70858 -0.595175,1.79171 -2.383956,2.93829 l -1.840868,1.17997 h -3.951288 c -3.77621,0 -3.983614,-0.0278 -4.680786,-0.62749 z m 7.166645,-1.77553 c 0.927973,-0.81477 1.466543,-2.09176 1.469366,-3.48396 0.0014,-0.68852 -0.06391,-0.72761 -1.215607,-0.72761 -1.031356,0 -1.35436,0.13728 -2.116667,0.89959 -0.826426,0.82642 -0.899583,1.03083 -0.899583,2.51354 v 1.61396 h 0.916834 c 0.646859,0 1.190342,-0.24015 1.845657,-0.81552 z m 5.439592,2.12534 c 0,-0.15272 0.494075,-1.99819 1.097942,-4.10104 l 1.097944,-3.82337 5.18591,0.004 c 3.58527,0.003 5.38438,0.10478 5.82893,0.33073 1.0867,0.55235 1.16287,1.57789 0.36326,4.89089 l -0.71842,2.97657 h -2.07999 c -1.8551,0 -2.06564,-0.0501 -1.94729,-0.46302 0.45565,-1.58985 0.96991,-4.91386 0.82895,-5.35798 -0.19649,-0.6191 -0.9777,-0.86351 -2.38403,-0.74585 l -1.010727,0.0845 -0.684374,2.43058 c -0.486611,1.72822 -0.908775,2.6648 -1.460947,3.24115 -0.705866,0.73676 -0.928666,0.81057 -2.446867,0.81057 -0.98965,0 -1.670291,-0.11316 -1.670291,-0.27768 z m 15.241866,-0.33743 -0.76543,-0.61248 0.34413,-1.43673 c 0.5818,-2.42895 0.95651,-3.03179 2.68102,-4.31329 l 1.64776,-1.22448 2.53001,-0.0113 2.53002,-0.0113 1.01152,-1.31164 1.01151,-1.31165 h 2.26203 c 1.76546,0 2.2076,0.0726 2.01409,0.33073 -0.13637,0.1819 -0.64342,0.8446 -1.12679,1.47267 -0.72017,0.93574 -1.03892,1.81957 -1.76528,4.89479 -0.48753,2.06407 -0.88802,3.84215 -0.88998,3.95129 -0.002,0.10914 -2.41458,0.19784 -5.36137,0.19712 -5.20295,-0.001 -5.37994,-0.019 -6.12324,-0.61379 z m 7.13089,-1.66358 c 0.8717,-0.66488 1.10336,-1.17736 1.57132,-3.476 l 0.17505,-0.8599 h -1.28779 c -1.02734,0 -1.46998,0.1521 -2.18864,0.75207 -0.82817,0.69139 -0.9099,0.89418 -1.01301,2.51354 l -0.11216,1.76148 h 0.97451 c 0.64302,0 1.28278,-0.23512 1.88072,-0.69119 z m 6.56059,1.6512 c -0.71164,-0.61213 -0.72186,-0.66056 -0.41766,-1.97845 0.55825,-2.41847 0.99585,-3.12633 2.71509,-4.39196 l 1.63577,-1.20419 h 4.4595 c 4.13819,0 4.47924,0.0369 4.7334,0.51178 0.55245,1.03226 0.32379,2.03543 -0.66106,2.90013 -1.85888,1.63212 -2.15857,1.73904 -5.26903,1.87976 -2.70366,0.12232 -2.92415,0.17219 -2.92415,0.66146 0,0.49797 0.20117,0.53355 3.41232,0.60351 l 3.41231,0.0743 -1.23869,0.78555 c -1.23073,0.78051 -1.26405,0.78556 -5.1835,0.78556 -3.76939,0 -3.97724,-0.0279 -4.6743,-0.62749 z m 8.84311,-4.64927 c 0.46899,-0.42835 0.85271,-0.9046 0.85271,-1.05833 0,-0.16794 -0.69453,-0.2795 -1.74014,-0.2795 -1.57054,0 -1.81553,0.0754 -2.51354,0.7734 -1.13495,1.13495 -0.99732,1.34327 0.88742,1.34327 1.46879,0 1.75943,-0.0901 2.51355,-0.77884 z m 4.02771,4.89718 c 0,-0.33379 0.55194,-3.21253 0.92532,-4.82618 0.0844,-0.36463 0.86377,-1.0191 2.12685,-1.78593 l 1.99368,-1.2104 h 3.84022 c 3.91966,0 4.83469,0.18895 5.64533,1.16571 0.27875,0.33587 0.2419,0.56179 -0.2112,1.29493 -0.70955,1.14808 -1.54262,1.50811 -3.48953,1.50811 h -1.57985 l 0.0709,-1.12448 c 0.069,-1.09402 0.0475,-1.12673 -0.7959,-1.2079 -0.53917,-0.0519 -1.20377,0.1248 -1.75814,0.46742 -0.89321,0.55203 -1.15555,1.20647 -2.1529,5.37069 -0.17295,0.7221 -0.19106,0.72761 -2.39454,0.72761 -1.75223,0 -2.22028,-0.08 -2.22028,-0.37958 z m 9.78958,-0.81105 1.16852,-1.19062 h 5.89803 c 5.6039,0 5.92524,-0.0272 6.44347,-0.54544 0.29999,-0.29999 0.50709,-0.74647 0.46023,-0.99219 -0.0725,-0.38008 -0.55201,-0.46649 -3.21348,-0.57904 -3.78651,-0.16013 -3.97237,-0.29696 -3.82147,-2.81343 0.11243,-1.87482 1.00536,-3.48817 2.40186,-4.33966 0.76987,-0.46941 1.35543,-0.51794 6.26081,-0.51884 l 5.41151,-9.9e-4 -1.03343,1.05834 -1.03344,1.05833 h -2.93014 c -3.08494,0 -3.77707,0.21352 -4.38711,1.3534 -0.55207,1.03154 0.0761,1.29243 3.11177,1.29243 2.73109,0 2.77629,0.0102 3.57356,0.80748 0.73616,0.73616 0.7928,0.91457 0.64129,2.01999 -0.21903,1.59799 -1.14256,3.2252 -2.25621,3.97531 -0.89037,0.59973 -0.98061,0.60556 -9.38165,0.60556 h -8.48263 z m 18.79495,0.99219 c 0.005,-0.10914 0.29455,-1.49769 0.64291,-3.08567 0.60684,-2.76622 0.6813,-2.92931 1.77641,-3.89132 1.00645,-0.88412 1.309,-1.00544 2.53209,-1.01538 0.76398,-0.006 1.38906,0.0564 1.38906,0.13921 0,0.16401 -1.25596,5.23062 -1.49523,6.03185 -0.12818,0.42922 0.0269,0.39577 1.18586,-0.2557 1.31329,-0.73824 1.33781,-0.77548 1.63191,-2.47817 0.23171,-1.34143 0.48426,-1.9213 1.12743,-2.58857 0.77302,-0.80199 0.94813,-0.8599 2.60033,-0.8599 h 1.77149 l -0.75927,2.97657 c -0.4176,1.6371 -0.76187,3.13111 -0.76506,3.32 -0.004,0.21003 0.44796,0.0312 1.16231,-0.46024 1.01329,-0.69716 1.20759,-0.98814 1.46606,-2.19552 0.22566,-1.05417 0.56545,-1.66466 1.40052,-2.51633 0.99334,-1.01307 1.22818,-1.12448 2.37041,-1.12448 0.72091,0 1.26782,0.12163 1.26782,0.28196 0,0.15508 -0.31429,1.45402 -0.69842,2.88653 l -0.69843,2.60458 -1.65408,1.21451 -1.65408,1.21451 h -7.30479 c -4.01762,0 -7.30049,-0.0893 -7.29525,-0.19844 z m 19.66919,-0.47171 c -0.62736,-0.62735 -0.6786,-0.83754 -0.58036,-2.38039 0.13003,-2.04211 0.94215,-3.22107 3.0322,-4.40187 l 1.34761,-0.76135 5.00497,0.072 5.00497,0.072 -1.28125,4.0349 -1.28126,4.0349 h -2.23363 c -1.2285,0 -2.23363,-0.0617 -2.23363,-0.13719 0,-0.0754 0.42304,-1.4458 0.9401,-3.04522 0.51706,-1.59942 0.86722,-3.02596 0.77814,-3.1701 -0.22907,-0.37064 -1.73325,-0.30836 -2.47403,0.10242 -0.86235,0.4782 -2.15463,2.47744 -2.15463,3.33336 0,0.8295 0.87913,1.74184 1.92975,2.00265 0.40652,0.10091 0.69449,0.3181 0.63993,0.48263 -0.0634,0.1911 -1.11989,0.32629 -2.92498,0.37428 -2.73724,0.0728 -2.84735,0.0536 -3.5139,-0.61298 z m 12.33835,-0.0575 c 0.13175,-0.40018 0.72716,-2.24565 1.32313,-4.10104 l 1.08359,-3.37344 h 5.16279 c 5.03253,0 6.00178,0.13387 6.51302,0.89951 0.35623,0.53351 0.19586,2.38247 -0.41538,4.78903 l -0.60482,2.38125 -2.27341,0.0761 -2.27341,0.0761 0.63576,-2.06045 c 1.11744,-3.62153 0.80806,-4.66191 -1.34548,-4.52468 l -1.30232,0.083 -0.71615,2.47476 c -0.48757,1.68487 -0.9505,2.71937 -1.45039,3.24115 -0.678,0.70768 -0.88142,0.76639 -2.65536,0.76639 h -1.92111 z"
         id="path2500" />
      <path
         style="fill:#fc0607;stroke-width:0.264583"
         d="m 136.06948,145.81728 c -2.81346,-0.77777 -3.76506,-1.63393 -3.76506,-3.38748 0,-2.48719 2.94269,-13.84855 4.1821,-16.14653 1.1788,-2.18562 2.37313,-2.74559 4.02929,-1.88916 1.4384,0.74382 1.39024,1.55836 -0.43232,7.31223 -2.42825,7.66605 -2.94801,10.35985 -2.12992,11.03881 0.46023,0.38195 1.28837,0.43235 3.0148,0.18345 1.17029,-0.16872 1.4145,-0.13076 1.55759,0.24211 0.22743,0.59269 -0.63627,1.70668 -1.76987,2.28274 -1.32469,0.67316 -3.07588,0.80911 -4.68661,0.36383 z M 32.556507,142.66429 c -8.930757,-1.8899 -18.387618,-9.04583 -21.9746,-16.62802 -0.8845255,-1.86971 -1.0483939,-2.99761 -0.200844,-1.38239 0.305435,0.58209 1.461032,1.96143 2.567994,3.0652 3.048151,3.03939 6.546014,4.74001 9.749293,4.74001 h 1.422883 l -1.98817,-1.5994 c -5.424748,-4.36398 -8.737701,-11.16971 -7.877936,-16.18348 0.85815,-5.00435 4.146465,-8.26444 9.728998,-9.64549 1.304221,-0.32265 2.921034,-0.45027 5.661965,-0.44694 3.413004,0.004 4.099292,0.0844 6.217708,0.72718 8.417026,2.55391 16.777444,9.20128 19.960376,15.87051 1.065861,2.23331 1.028862,2.73287 -0.08041,1.0857 -2.748216,-4.08087 -8.346112,-7.45497 -11.977645,-7.21946 l -1.251612,0.0812 1.910922,1.54145 c 3.271885,2.63927 5.823596,6.13179 7.12144,9.74711 0.571246,1.59127 0.698852,2.41689 0.708875,4.58644 0.01717,3.71713 -0.65363,5.45833 -3.014721,7.8253 -2.870115,2.87728 -5.761789,3.90307 -11.525139,4.08842 -2.308836,0.0743 -4.004957,-0.009 -5.159375,-0.25331 z m 7.994364,-7.94866 c 1.486466,-0.24253 1.383663,-0.53166 -0.205555,-0.57813 -4.062687,-0.11878 -8.364414,-4.24522 -8.422068,-8.07887 -0.03723,-2.47591 1.506607,-3.95057 4.160875,-3.97442 2.928728,-0.0263 5.794414,1.59827 7.700229,4.36534 0.903597,1.31193 1.062636,1.76578 1.201973,3.43004 l 0.160586,1.91804 0.451673,-1.43708 c 0.586473,-1.86598 0.569839,-3.01939 -0.07359,-5.10257 -1.344004,-4.35138 -5.036307,-8.08249 -10.116601,-10.22292 -1.45671,-0.61374 -2.019627,-0.69993 -4.57168,-0.69993 -3.340519,0 -4.358238,0.37202 -6.005387,2.19522 -1.281576,1.41855 -1.624212,2.60167 -1.479152,5.1075 0.171061,2.95497 1.433082,5.44368 4.148503,8.18086 2.788382,2.81072 5.917236,4.4971 9.289161,5.00664 1.436264,0.21704 1.828454,0.2056 3.761031,-0.10972 z"
         id="path2498" />
    </g>
  </g>
</svg>
