<?xml version="1.0" encoding="UTF-8" standalone="no"?>
<!-- Generator: Adobe Illustrator 16.0.3, SVG Export Plug-In . SVG Version: 6.00 Build 0)  -->

<svg
   version="1.1"
   id="svg1354"
   x="0px"
   y="0px"
   width="566.93px"
   height="300px"
   viewBox="0 -26.707 566.93 300"
   enable-background="new 0 -26.707 566.93 300"
   xml:space="preserve"
   sodipodi:docname="logo-light.svg"
   inkscape:version="1.1.2 (b8e25be833, 2022-02-05)"
   xmlns:inkscape="http://www.inkscape.org/namespaces/inkscape"
   xmlns:sodipodi="http://sodipodi.sourceforge.net/DTD/sodipodi-0.dtd"
   xmlns="http://www.w3.org/2000/svg"
   xmlns:svg="http://www.w3.org/2000/svg"><defs
   id="defs869" /><sodipodi:namedview
   id="namedview867"
   pagecolor="#ffffff"
   bordercolor="#666666"
   borderopacity="1.0"
   inkscape:pageshadow="2"
   inkscape:pageopacity="0.0"
   inkscape:pagecheckerboard="0"
   showgrid="false"
   inkscape:zoom="1.8661916"
   inkscape:cx="283.19707"
   inkscape:cy="150.03818"
   inkscape:window-width="1920"
   inkscape:window-height="1017"
   inkscape:window-x="-8"
   inkscape:window-y="-8"
   inkscape:window-maximized="1"
   inkscape:current-layer="g864" />
<g
   id="g864">
	<path
   fill="#8A8A8A"
   d="M355.764,28.076c0,15.479,13.033,28.043,29.076,28.043c16.676,0,29.77-12.304,29.77-28.043   C414.609,12.333,401.516,0,384.84,0C368.797,0,355.764,12.582,355.764,28.076"
   id="path850"
   style="fill:#ececec" />
	<rect
   x="360.59"
   y="84.227"
   fill="#8A8A8A"
   width="49.639"
   height="160.606"
   id="rect852"
   style="fill:#ececec" />
	<path
   fill="#8A8A8A"
   d="M456.672,28.076c0,15.479,13.059,28.043,29.092,28.043c16.686,0,29.754-12.304,29.754-28.043   C515.518,12.333,502.449,0,485.764,0C469.73,0,456.672,12.582,456.672,28.076"
   id="path854"
   style="fill:#ececec" />
	<rect
   x="461.482"
   y="84.227"
   fill="#8A8A8A"
   width="49.652"
   height="160.606"
   id="rect856"
   style="fill:#ececec" />
	<path
   fill="#8A8A8A"
   d="M281.654,13.507l-43.528,170.654c0,0-33.281-128.097-38.695-146.266   c-5.414-18.199-16.558-26.172-32.36-26.172c-15.809,0-26.971,7.973-32.384,26.172c-5.394,18.169-38.683,146.266-38.683,146.266   L52.447,13.507H0c0,0,50.371,182.08,57.219,203.164c5.327,16.459,17.944,29.916,36.648,29.916   c21.384,0,31.385-15.592,36.016-29.916c4.582-14.24,37.188-134.498,37.188-134.498s32.604,120.258,37.175,134.498   c4.629,14.324,14.63,29.916,36.009,29.916c18.719,0,31.313-13.457,36.673-29.916c6.831-21.084,57.17-203.164,57.17-203.164H281.654   z"
   id="path858"
   style="fill:#ececec" />
	<polygon
   fill="#8A8A8A"
   points="526.229,223.076 543.262,223.076 543.262,226.287 536.572,226.287 536.572,244.833    532.938,244.833 532.938,226.287 526.229,226.287  "
   id="polygon860"
   style="fill:#ececec" />
	<polygon
   fill="#8A8A8A"
   points="545.867,223.076 551.092,223.076 556.334,240.484 561.662,223.076 566.93,223.076 566.93,244.833    563.473,244.833 563.473,226.855 558.064,244.833 554.512,244.833 549.199,226.855 549.199,244.833 545.867,244.833  "
   id="polygon862"
   style="fill:#ececec" />
</g>
</svg>
