<?xml version="1.0" encoding="UTF-8" standalone="no"?>
<!-- Generator: Adobe Illustrator 15.1.0, SVG Export Plug-In  -->

<svg
   version="1.1"
   x="0px"
   y="0px"
   width="657px"
   height="225px"
   viewBox="-9.595 -11.5 657 225"
   enable-background="new -9.595 -11.5 657 225"
   xml:space="preserve"
   id="svg10"
   sodipodi:docname="logo.svg"
   inkscape:version="1.1.2 (b8e25be833, 2022-02-05)"
   xmlns:inkscape="http://www.inkscape.org/namespaces/inkscape"
   xmlns:sodipodi="http://sodipodi.sourceforge.net/DTD/sodipodi-0.dtd"
   xmlns="http://www.w3.org/2000/svg"
   xmlns:svg="http://www.w3.org/2000/svg"><sodipodi:namedview
   id="namedview12"
   pagecolor="#ffffff"
   bordercolor="#666666"
   borderopacity="1.0"
   inkscape:pageshadow="2"
   inkscape:pageopacity="0.0"
   inkscape:pagecheckerboard="0"
   showgrid="false"
   inkscape:zoom="1.6103501"
   inkscape:cx="328.18951"
   inkscape:cy="112.39792"
   inkscape:window-width="1920"
   inkscape:window-height="1017"
   inkscape:window-x="-8"
   inkscape:window-y="-8"
   inkscape:window-maximized="1"
   inkscape:current-layer="svg10" />
<defs
   id="defs2">
</defs>
<path
   d="M153.81,202.5H0l97.271-95.447L153.81,202.5z M31.81,189.5H131l-36.461-61.553L31.81,189.5z"
   id="path4"
   style="fill:#f9f9f9" />
<path
   d="M447.126,0L402.2,47h54.589l-80.185,142.5h-51.439L216.165,0H60.116l117.546,202.5h143.743h11.237h36.646h12.116h142.26  L640.142,0H447.126z M185.147,189.5L82.693,13h125.952l101.522,176.5H185.147z M516.145,189.5H391.521l87.5-155.5H432.61l20.073-21  h164.984L516.145,189.5z"
   id="path6"
   style="fill:#f9f9f9" />
<path
   d="M292.463,91.218L241.307,0h141.141L292.463,91.218z M263.502,13l31.844,56.783L351.362,13H263.502z"
   id="path8"
   style="fill:#f9f9f9" />
</svg>
