<?xml version="1.0" encoding="UTF-8" standalone="no"?>
<!-- Created with Inkscape (http://www.inkscape.org/) -->

<svg
   width="219.09631mm"
   height="59.232395mm"
   viewBox="0 0 219.09631 59.232395"
   version="1.1"
   id="svg3503"
   inkscape:version="1.1.2 (b8e25be833, 2022-02-05)"
   sodipodi:docname="logo-light.svg"
   xmlns:inkscape="http://www.inkscape.org/namespaces/inkscape"
   xmlns:sodipodi="http://sodipodi.sourceforge.net/DTD/sodipodi-0.dtd"
   xmlns="http://www.w3.org/2000/svg"
   xmlns:svg="http://www.w3.org/2000/svg">
  <sodipodi:namedview
     id="namedview3505"
     pagecolor="#ffffff"
     bordercolor="#666666"
     borderopacity="1.0"
     inkscape:pageshadow="2"
     inkscape:pageopacity="0.0"
     inkscape:pagecheckerboard="0"
     inkscape:document-units="mm"
     showgrid="false"
     inkscape:zoom="0.74029882"
     inkscape:cx="303.93132"
     inkscape:cy="378.22565"
     inkscape:window-width="1920"
     inkscape:window-height="1017"
     inkscape:window-x="-8"
     inkscape:window-y="-8"
     inkscape:window-maximized="1"
     inkscape:current-layer="g3684" />
  <defs
     id="defs3500" />
  <g
     inkscape:label="Layer 1"
     inkscape:groupmode="layer"
     id="layer1"
     transform="translate(-3.0447236,-48.615759)">
    <g
       id="g3684">
      <path
         style="fill:#fe0202;stroke-width:0.264583"
         d="m 59.990041,107.51096 c -4.037713,-1.13652 -6.116267,-3.61543 -6.354027,-7.577881 -0.163769,-2.72934 0.393253,-4.37424 2.070563,-6.11442 l 1.267905,-1.31542 -0.890879,-0.78221 c -0.98054,-0.86092 -1.975289,-3.1516 -1.975289,-4.54864 0,-1.32311 0.703017,-3.4054 1.539148,-4.55886 2.609564,-3.59994 9.951926,-3.9235 13.289772,-0.58565 2.649204,2.6492 2.668272,7.6237 0.03747,9.77563 l -0.76096,0.62245 1.390113,1.3433 c 1.055341,1.01981 1.49143,1.68448 1.810827,2.76 1.26388,4.255951 -0.452671,8.486761 -4.189744,10.326511 -2.065681,1.01693 -5.004297,1.28305 -7.234899,0.65519 z m 4.51448,-5.43185 c 1.308113,-1.02896 1.620261,-3.875421 0.596352,-5.438101 -1.128675,-1.72258 -3.877482,-1.74127 -4.918808,-0.0334 -1.004879,1.64805 -0.548944,4.603121 0.862775,5.591921 0.843767,0.591 2.634536,0.52869 3.459681,-0.12037 z m -0.62217,-12.290941 c 1.460169,-0.75509 1.664795,-3.34128 0.346424,-4.37831 -0.801492,-0.63045 -2.360372,-0.68843 -3.174669,-0.11808 -0.915279,0.64109 -1.265092,2.18558 -0.765712,3.38077 0.597826,1.4308 2.089218,1.89375 3.593957,1.11562 z M 3.3612306,107.05742 C 3.1608973,106.85708 3.044098,105.85629 3.0447261,104.34544 l 9.956e-4,-2.39448 6.6903599,-8.202081 6.6903604,-8.20209 -5.546267,-0.0715 c -3.5479259,-0.0458 -5.6728547,-0.17659 -5.8976052,-0.36312 -0.4602944,-0.38201 -0.4883989,-4.48182 -0.033839,-4.93638 0.4554346,-0.45543 19.5470652,-0.45543 20.0025002,0 0.195895,0.1959 0.314392,1.13327 0.309386,2.4474 l -0.0081,2.12989 -6.871053,8.40182 c -3.779081,4.62099 -6.871055,8.460761 -6.871055,8.532811 0,0.072 3.071813,0.131 6.826251,0.131 4.956527,0 6.913213,0.087 7.14375,0.3175 0.426645,0.42665 0.426645,4.4946 0,4.92125 -0.456233,0.45623 -21.6629343,0.45623 -22.1191672,0 z m 23.4068064,0.14111 c -0.09701,-0.097 -0.176389,-0.33446 -0.176389,-0.52766 0,-0.19319 1.969627,-3.34407 4.376949,-7.001951 l 4.376949,-6.65068 -3.490868,-5.32322 c -1.919978,-2.92778 -3.723365,-5.71118 -4.007526,-6.18535 -0.902467,-1.50592 -0.629424,-1.65142 3.099072,-1.65142 h 3.31285 l 2.460599,3.68549 2.460601,3.68549 2.435429,-3.69341 2.435428,-3.6934 3.371702,0.0741 c 2.933695,0.0644 3.382955,0.13276 3.45834,0.52592 0.04765,0.24852 -1.705385,3.18983 -3.895638,6.53625 l -3.982275,6.08439 4.377801,6.64495 c 2.40779,3.654731 4.339412,6.845131 4.292491,7.089801 -0.07384,0.38504 -0.54723,0.45439 -3.52163,0.51593 l -3.436316,0.0711 -2.762322,-4.24932 -2.762321,-4.249331 -2.783784,4.244371 -2.783787,4.24438 h -3.339484 c -1.836715,0 -3.418858,-0.0794 -3.515871,-0.17639 z m 48.102528,-0.14534 c -0.07157,-0.18685 -0.09915,-6.35239 -0.06129,-13.701191 l 0.06883,-13.36146 h 2.910417 2.910416 v 13.62605 13.626041 l -2.84912,0.0751 c -2.131463,0.0562 -2.8819,-0.0104 -2.979254,-0.26458 z"
         id="path3688" />
      <path
         style="fill:#f9f9f9;stroke-width:0.264583"
         d="m 3.5728972,75.095749 v -2.11666 H 19.977064 36.381231 v -2.38125 -2.38125 H 19.977064 3.5728972 v -6.61459 -6.61458 H 22.226023 40.879148 v 2.11667 2.11666 H 24.474981 8.0708139 v 2.38125 2.38125 H 24.474981 40.879148 v 6.61459 6.61458 H 22.226023 3.5728972 Z m 39.9520838,-8.86354 v -10.98021 h 2.248958 2.248959 v 10.98021 10.98021 h -2.248959 -2.248958 z m 6.879167,0 v -10.98021 h 18.653125 18.653125 v 10.99091 10.99091 l -2.182813,-0.0769 -2.182812,-0.0768 -0.06971,-8.7974 -0.06971,-8.79739 H 69.053706 54.902064 v 8.86354 8.86354 h -2.248958 -2.248958 z m 39.750709,0.0679 0.06908,-10.91584 h 18.653133 18.65312 l 0.0773,2.05053 0.0773,2.05052 H 111.13715 94.589564 v 6.74687 6.74688 h 16.547586 16.54759 l -0.0773,2.05052 -0.0773,2.05052 -18.72221,0.0679 -18.722206,0.0679 z m 40.418043,-3.38591 v -14.2982 l 2.18281,0.0769 2.18281,0.0768 0.0685,14.22136 0.0684,14.22135 h -2.25125 -2.25126 z m 6.87917,7.81591 v -6.48229 h 16.40416 16.40417 v -2.38125 -2.38125 h -16.40417 -16.40416 v -2.11667 -2.11667 h 18.65312 18.65313 v 10.98021 10.98021 h -18.65313 -18.65312 z m 32.80833,-0.13229 v -2.38125 h -14.15521 -14.15521 v 2.38125 2.38125 h 14.15521 14.15521 z m 7.14375,-4.36563 v -10.98021 h 2.24896 2.24896 v 10.98021 10.98021 h -2.24896 -2.24896 z m 7.14375,-0.002 v -10.98198 l 18.71927,0.0679 18.71927,0.0679 0.0773,2.05053 0.0773,2.05052 h -16.54759 -16.54758 v 8.86354 8.86354 h -2.24896 -2.24896 v -10.98198 z m -140.967902,-15.41021 0.07728,-2.05052 2.182812,-0.0768 2.182813,-0.0769 v 2.12737 2.12736 h -2.260087 -2.260089 z m 133.824152,-0.0661 v -2.11667 h 2.24896 2.24896 v 2.11667 2.11666 h -2.24896 -2.24896 z"
         id="path3686" />
    </g>
  </g>
</svg>
