<?xml version="1.0" encoding="UTF-8" standalone="no"?>
<!-- Generator: Adobe Illustrator 16.0.0, SVG Export Plug-In . SVG Version: 6.00 Build 0)  -->

<svg
   sodipodi:docname="logo.svg"
   inkscape:version="1.1.2 (b8e25be833, 2022-02-05)"
   xml:space="preserve"
   enable-background="new 0 0 248.571 248.571"
   viewBox="0 0 347.99921 188.84131"
   height="188.84131"
   width="347.99921"
   y="0px"
   x="0px"
   id="svg2"
   version="1.1"
   xmlns:inkscape="http://www.inkscape.org/namespaces/inkscape"
   xmlns:sodipodi="http://sodipodi.sourceforge.net/DTD/sodipodi-0.dtd"
   xmlns="http://www.w3.org/2000/svg"
   xmlns:svg="http://www.w3.org/2000/svg"
   xmlns:rdf="http://www.w3.org/1999/02/22-rdf-syntax-ns#"
   xmlns:cc="http://creativecommons.org/ns#"
   xmlns:dc="http://purl.org/dc/elements/1.1/"><metadata
     id="metadata57"><rdf:RDF><cc:Work
         rdf:about=""><dc:format>image/svg+xml</dc:format><dc:type
           rdf:resource="http://purl.org/dc/dcmitype/StillImage" /></cc:Work></rdf:RDF></metadata><defs
     id="defs55" /><sodipodi:namedview
     pagecolor="#ffffff"
     bordercolor="#666666"
     borderopacity="1"
     objecttolerance="10"
     gridtolerance="10"
     guidetolerance="10"
     inkscape:pageopacity="0"
     inkscape:pageshadow="2"
     inkscape:window-width="1920"
     inkscape:window-height="1017"
     id="namedview53"
     showgrid="false"
     inkscape:zoom="1.3435675"
     inkscape:cx="109.41021"
     inkscape:cy="114.62022"
     inkscape:window-x="-8"
     inkscape:window-y="-8"
     inkscape:window-maximized="1"
     inkscape:current-layer="layer1"
     inkscape:pagecheckerboard="0" /><g
     id="layer1"
     transform="rotate(30.441211,949.01694,-285.65074)"><path
       id="path3099"
       stroke-width="6"
       d="m 410.951,366.726 c -2.583,27.364 -8.65,40.051 -11.059,50.922 -1.204,5.436 -1.468,10.432 0.094,16.466 1.562,6.034 4.943,13.107 11.027,22.808 l 0.846,-0.518 c -6.057,-9.659 -9.378,-16.649 -10.901,-22.534 -1.523,-5.885 -1.247,-10.662 -0.063,-16.008 2.369,-10.694 8.465,-23.569 11.058,-51.044 z"
       style="fill:#0d0d0d;stroke:#373737;stroke-opacity:1" /><g
       id="g3915"><g
         id="g9"><path
           id="path2993_1_"
           fill="#3e4362"
           d="m 399.265,504.94 c 0,22.092 -17.909,40 -40,40 -22.092,0 -40,-17.908 -40,-40 v 0 c 0,-22.091 17.908,-40 40,-40 22.091,0 40,17.909 40,40 z" /><path
           id="path2993-7_1_"
           fill="#3e4362"
           d="m 501.264,504.94 c 0,22.092 -17.908,40 -40,40 -22.092,0 -40,-17.908 -40,-40 v 0 c 0,-22.091 17.908,-40 40,-40 22.092,0 40,17.909 40,40 z" /><rect
           id="rect3031_1_"
           x="356.04999"
           y="464.94"
           fill="#3e4362"
           width="105.713"
           height="60" /></g><g
         id="g14"><path
           id="path2993"
           fill="#0d0d0d"
           d="m 399.598,496.273 c 0,22.092 -17.909,40 -40,40 -22.092,0 -40,-17.908 -40,-40 v 0 c 0,-22.091 17.908,-40 40,-40 22.091,0 40,17.909 40,40 z" /><path
           id="path2993-7"
           fill="#0d0d0d"
           d="m 501.598,496.273 c 0,22.092 -17.908,40 -40,40 -22.092,0 -40,-17.908 -40,-40 v 0 c 0,-22.091 17.908,-40 40,-40 22.092,0 40,17.909 40,40 z" /><rect
           id="rect3031"
           x="356.384"
           y="456.27301"
           fill="#0d0d0d"
           width="105.714"
           height="60" /></g><g
         id="g19"><path
           id="path3055_2_"
           fill="#3e4362"
           d="m 472.387,478.471 c 0,5.061 -4.104,9.163 -9.164,9.163 -5.06,0 -9.163,-4.102 -9.163,-9.163 0,-5.061 4.103,-9.163 9.163,-9.163 5.06,0 9.164,4.102 9.164,9.163 z" /><path
           id="path3055-0_2_"
           fill="#3e4362"
           d="m 472.531,516.005 c 0,5.061 -4.103,9.163 -9.162,9.163 -5.062,0 -9.164,-4.103 -9.164,-9.163 0,-5.062 4.103,-9.164 9.164,-9.164 5.06,0 9.162,4.102 9.162,9.164 z" /><path
           id="path3055-9_2_"
           fill="#3e4362"
           d="m 491.125,497.376 c 0,5.06 -4.104,9.163 -9.162,9.163 -5.063,0 -9.164,-4.104 -9.164,-9.163 0,-5.062 4.102,-9.164 9.164,-9.164 5.058,0 9.162,4.103 9.162,9.164 z" /><path
           id="path3055-4_2_"
           fill="#3e4362"
           d="m 453.724,497.356 c 0,5.063 -4.103,9.164 -9.163,9.164 -5.062,0 -9.163,-4.102 -9.163,-9.164 0,-5.06 4.102,-9.163 9.163,-9.163 5.06,0 9.163,4.103 9.163,9.163 z" /></g><g
         id="g25"><path
           id="path3055_1_"
           fill="#ebeded"
           d="m 472.387,477.221 c 0,5.061 -4.104,9.163 -9.164,9.163 -5.06,0 -9.163,-4.102 -9.163,-9.163 0,-5.061 4.103,-9.163 9.163,-9.163 5.06,0 9.164,4.102 9.164,9.163 z" /><path
           id="path3055-0_1_"
           fill="#ebeded"
           d="m 472.531,514.755 c 0,5.061 -4.103,9.163 -9.162,9.163 -5.062,0 -9.164,-4.103 -9.164,-9.163 0,-5.062 4.103,-9.164 9.164,-9.164 5.06,0 9.162,4.102 9.162,9.164 z" /><path
           id="path3055-9_1_"
           fill="#ebeded"
           d="m 491.125,496.126 c 0,5.06 -4.104,9.163 -9.162,9.163 -5.063,0 -9.164,-4.104 -9.164,-9.163 0,-5.062 4.102,-9.164 9.164,-9.164 5.058,0 9.162,4.103 9.162,9.164 z" /><path
           id="path3055-4_1_"
           fill="#ebeded"
           d="m 453.724,496.106 c 0,5.063 -4.103,9.164 -9.163,9.164 -5.062,0 -9.163,-4.102 -9.163,-9.164 0,-5.06 4.102,-9.163 9.163,-9.163 5.06,0 9.163,4.103 9.163,9.163 z" /></g><path
         id="path3055"
         fill="#cccccc"
         d="m 472.387,474.846 c 0,5.061 -4.104,9.163 -9.164,9.163 -5.06,0 -9.163,-4.103 -9.163,-9.163 0,-5.061 4.103,-9.163 9.163,-9.163 5.06,0 9.164,4.102 9.164,9.163 z" /><path
         id="path3055-0"
         fill="#cccccc"
         d="m 472.531,512.38 c 0,5.061 -4.103,9.163 -9.162,9.163 -5.062,0 -9.164,-4.103 -9.164,-9.163 0,-5.062 4.103,-9.164 9.164,-9.164 5.06,0 9.162,4.102 9.162,9.164 z" /><path
         id="path3055-9"
         fill="#cccccc"
         d="m 491.125,493.751 c 0,5.06 -4.104,9.163 -9.162,9.163 -5.063,0 -9.164,-4.104 -9.164,-9.163 0,-5.062 4.102,-9.164 9.164,-9.164 5.058,0.001 9.162,4.103 9.162,9.164 z" /><path
         id="path3055-4"
         fill="#cccccc"
         d="m 453.724,493.731 c 0,5.063 -4.103,9.164 -9.163,9.164 -5.062,0 -9.163,-4.102 -9.163,-9.164 0,-5.06 4.102,-9.163 9.163,-9.163 5.06,0 9.163,4.103 9.163,9.163 z" /><g
         id="g35"><path
           fill="#3e4362"
           d="m 383.75,502.13 c 0,3.797 -3.078,6.875 -6.875,6.875 h -36.25 c -3.797,0 -6.875,-3.078 -6.875,-6.875 v 0 c 0,-3.797 3.078,-6.875 6.875,-6.875 h 36.25 c 3.797,0 6.875,3.078 6.875,6.875 z"
           id="path37" /><path
           fill="#3e4362"
           d="m 358.625,477.13 c 3.797,0 6.875,3.078 6.875,6.875 v 36.25 c 0,3.797 -3.078,6.875 -6.875,6.875 v 0 c -3.797,0 -6.875,-3.078 -6.875,-6.875 v -36.25 c 0,-3.797 3.078,-6.875 6.875,-6.875 z"
           id="path39" /></g><g
         id="g41"><path
           fill="#ebeded"
           d="m 383.75,499.255 c 0,3.797 -3.078,6.875 -6.875,6.875 h -36.25 c -3.797,0 -6.875,-3.078 -6.875,-6.875 v 0 c 0,-3.797 3.078,-6.875 6.875,-6.875 h 36.25 c 3.797,0 6.875,3.078 6.875,6.875 z"
           id="path43" /><path
           fill="#ebeded"
           d="m 358.625,474.255 c 3.797,0 6.875,3.078 6.875,6.875 v 36.25 c 0,3.797 -3.078,6.875 -6.875,6.875 v 0 c -3.797,0 -6.875,-3.078 -6.875,-6.875 v -36.25 c 0,-3.797 3.078,-6.875 6.875,-6.875 z"
           id="path45" /></g><g
         id="g47"><path
           fill="#cccccc"
           d="m 383.75,495.755 c 0,3.797 -3.078,6.875 -6.875,6.875 h -36.25 c -3.797,0 -6.875,-3.078 -6.875,-6.875 v 0 c 0,-3.797 3.078,-6.875 6.875,-6.875 h 36.25 c 3.797,0 6.875,3.078 6.875,6.875 z"
           id="path49" /><path
           fill="#cccccc"
           d="m 358.625,470.755 c 3.797,0 6.875,3.078 6.875,6.875 v 36.25 c 0,3.797 -3.078,6.875 -6.875,6.875 v 0 c -3.797,0 -6.875,-3.078 -6.875,-6.875 v -36.25 c 0,-3.797 3.078,-6.875 6.875,-6.875 z"
           id="path51" /></g></g><g
       aria-label="ALL"
       transform="matrix(0.62628609,-0.36804565,0.36804565,0.62628609,133.70769,117.47965)"
       id="text3502"
       style="font-size:9.77409px;line-height:0%;fill:#666666;stroke-width:2.7623"><path
         d="m 281.5504,653.57208 h -21.41862 l -5.55697,-16.2393 h -29.78104 l -5.55697,16.2393 h -20.87911 l 29.67315,-80.33329 h 23.84642 z m -31.99305,-30.96797 -9.87306,-28.80992 -9.87306,28.80992 z"
         style="font-weight:bold;font-size:110.492px;line-height:1.25;-inkscape-font-specification:'sans-serif, Bold'"
         id="path8944" /><path
         d="m 351.03951,653.57208 h -57.94356 v -80.33329 h 20.71725 v 64.79536 h 37.22631 z"
         style="font-weight:bold;font-size:110.492px;line-height:1.25;-inkscape-font-specification:'sans-serif, Bold'"
         id="path8946" /><path
         d="m 421.44579,653.57208 h -57.94356 v -80.33329 h 20.71725 v 64.79536 h 37.22631 z"
         style="font-weight:bold;font-size:110.492px;line-height:1.25;-inkscape-font-specification:'sans-serif, Bold'"
         id="path8948" /></g></g></svg>
