<?xml version="1.0" encoding="UTF-8" standalone="no"?>
<!-- Created with Inkscape (http://www.inkscape.org/) -->

<svg
   width="486.80521mm"
   height="79.897171mm"
   viewBox="0 0 486.80521 79.897171"
   version="1.1"
   id="svg920"
   sodipodi:docname="logo.svg"
   inkscape:version="1.1.2 (b8e25be833, 2022-02-05)"
   xmlns:inkscape="http://www.inkscape.org/namespaces/inkscape"
   xmlns:sodipodi="http://sodipodi.sourceforge.net/DTD/sodipodi-0.dtd"
   xmlns="http://www.w3.org/2000/svg"
   xmlns:svg="http://www.w3.org/2000/svg">
  <sodipodi:namedview
     id="namedview922"
     pagecolor="#ffffff"
     bordercolor="#666666"
     borderopacity="1.0"
     inkscape:pageshadow="2"
     inkscape:pageopacity="0.0"
     inkscape:pagecheckerboard="0"
     inkscape:document-units="mm"
     showgrid="false"
     inkscape:zoom="0.74029882"
     inkscape:cx="1009.052"
     inkscape:cy="217.47975"
     inkscape:window-width="1920"
     inkscape:window-height="1017"
     inkscape:window-x="-8"
     inkscape:window-y="-8"
     inkscape:window-maximized="1"
     inkscape:current-layer="layer1" />
  <defs
     id="defs917">
    <inkscape:path-effect
       effect="fill_between_many"
       method="originald"
       linkedpaths="#path2185,0,1|"
       id="path-effect2627" />
    <inkscape:path-effect
       effect="fill_between_many"
       method="originald"
       linkedpaths="#path2185,0,1|"
       id="path-effect2631" />
    <inkscape:path-effect
       effect="fill_between_many"
       method="originald"
       linkedpaths="#path2185,0,1|"
       id="path-effect4384" />
  </defs>
  <g
     inkscape:label="Layer 1"
     inkscape:groupmode="layer"
     id="layer1"
     transform="translate(288.79947,108.27069)">
    <path
       d="m 66.805172,-29.320106 c -2.14511,-0.576948 -4.808644,-2.087515 -6.235885,-3.536537 l -1.275213,-1.294681 -1.340326,1.059466 c -3.864266,3.054535 -8.559244,4.072094 -13.251445,2.872031 -2.874486,-0.735174 -4.481142,-1.675963 -6.77836,-3.969144 -2.177891,-2.174047 -3.363833,-4.148082 -4.13602,-6.884554 -0.445558,-1.578917 -0.485298,-2.987661 -0.485298,-17.197916 0,-17.032021 -0.0164,-16.830226 1.65608,-20.372917 1.691587,-3.58321 5.657717,-6.833169 9.721003,-7.96566 1.089316,-0.303604 5.854938,-0.368715 26.9875,-0.368715 h 25.664583 l 1.852084,0.591079 c 1.608935,0.513482 3.477445,1.459952 4.920375,2.492356 0.34242,0.24501 0.69324,0.0999 1.85208,-0.766114 3.29526,-2.462575 6.17903,-3.36332 10.16088,-3.173762 3.91932,0.186582 6.88482,1.480815 9.93907,4.337704 l 1.29061,1.207219 1.26431,-1.122383 c 1.67725,-1.48894 4.94186,-3.049977 7.16137,-3.424346 1.22164,-0.206055 6.01623,-0.27623 15.14322,-0.221639 l 13.35558,0.07989 1.95284,0.713129 c 1.62851,0.594683 3.28525,1.541097 5.20115,2.971136 0.22662,0.169135 0.75737,-0.131083 1.7191,-0.972373 3.57056,-3.123446 8.68202,-4.356852 13.42314,-3.239037 4.14374,0.976976 7.92302,3.984569 9.88113,7.863551 1.2125,2.402002 1.55702,4.163164 1.55702,7.959842 0,3.07096 -0.0775,3.642397 -0.77706,5.730449 l -0.77705,2.319337 0.71091,1.688441 0.7109,1.688442 0.082,9.075822 c 0.0924,10.218891 0.0151,10.910541 -1.57658,14.090367 -1.87457,3.745291 -5.55789,6.721432 -9.63178,7.782549 -1.99126,0.518655 -5.65537,0.5183 -7.64808,-7.94e-4 -2.04967,-0.533865 -4.39303,-1.804431 -6.01104,-3.259169 l -1.309,-1.176896 -0.71109,0.568735 c -1.3072,1.045472 -3.34055,2.145324 -5.07675,2.746055 -2.46917,0.854337 -6.80579,0.847847 -9.31079,-0.01394 -1.9866,-0.68343 -4.38174,-2.15215 -5.77046,-3.538461 l -0.92604,-0.924441 -1.30334,1.165667 c -5.75953,5.151207 -14.52372,5.341411 -19.98231,0.433665 l -1.33503,-1.200311 -1.76398,1.616366 c -3.00858,2.756802 -6.17297,3.979339 -10.31404,3.984712 -3.67617,0.0048 -6.69769,-1.058619 -9.55826,-3.363915 l -1.12987,-0.910561 -1.48897,0.988312 c -5.722304,3.798255 -13.456339,3.122117 -18.583382,-1.624627 -0.886989,-0.821187 -1.612688,-1.372092 -1.612688,-1.224235 0,0.147857 -0.720355,0.982514 -1.600782,1.854793 -1.78107,1.764567 -4.391766,3.265413 -6.747431,3.878987 -1.934977,0.503997 -5.860838,0.497406 -7.758615,-0.01302 z"
       id="path2629"
       inkscape:original-d="M 0,0"
       inkscape:path-effect="#path-effect2627" />
    <path
       d="m 66.805172,-29.320106 c -2.14511,-0.576948 -4.808644,-2.087515 -6.235885,-3.536537 l -1.275213,-1.294681 -1.340326,1.059466 c -3.864266,3.054535 -8.559244,4.072094 -13.251445,2.872031 -2.874486,-0.735174 -4.481142,-1.675963 -6.77836,-3.969144 -2.177891,-2.174047 -3.363833,-4.148082 -4.13602,-6.884554 -0.445558,-1.578917 -0.485298,-2.987661 -0.485298,-17.197916 0,-17.032021 -0.0164,-16.830226 1.65608,-20.372917 1.691587,-3.58321 5.657717,-6.833169 9.721003,-7.96566 1.089316,-0.303604 5.854938,-0.368715 26.9875,-0.368715 h 25.664583 l 1.852084,0.591079 c 1.608935,0.513482 3.477445,1.459952 4.920375,2.492356 0.34242,0.24501 0.69324,0.0999 1.85208,-0.766114 3.29526,-2.462575 6.17903,-3.36332 10.16088,-3.173762 3.91932,0.186582 6.88482,1.480815 9.93907,4.337704 l 1.29061,1.207219 1.26431,-1.122383 c 1.67725,-1.48894 4.94186,-3.049977 7.16137,-3.424346 1.22164,-0.206055 6.01623,-0.27623 15.14322,-0.221639 l 13.35558,0.07989 1.95284,0.713129 c 1.62851,0.594683 3.28525,1.541097 5.20115,2.971136 0.22662,0.169135 0.75737,-0.131083 1.7191,-0.972373 3.57056,-3.123446 8.68202,-4.356852 13.42314,-3.239037 4.14374,0.976976 7.92302,3.984569 9.88113,7.863551 1.2125,2.402002 1.55702,4.163164 1.55702,7.959842 0,3.07096 -0.0775,3.642397 -0.77706,5.730449 l -0.77705,2.319337 0.71091,1.688441 0.7109,1.688442 0.082,9.075822 c 0.0924,10.218891 0.0151,10.910541 -1.57658,14.090367 -1.87457,3.745291 -5.55789,6.721432 -9.63178,7.782549 -1.99126,0.518655 -5.65537,0.5183 -7.64808,-7.94e-4 -2.04967,-0.533865 -4.39303,-1.804431 -6.01104,-3.259169 l -1.309,-1.176896 -0.71109,0.568735 c -1.3072,1.045472 -3.34055,2.145324 -5.07675,2.746055 -2.46917,0.854337 -6.80579,0.847847 -9.31079,-0.01394 -1.9866,-0.68343 -4.38174,-2.15215 -5.77046,-3.538461 l -0.92604,-0.924441 -1.30334,1.165667 c -5.75953,5.151207 -14.52372,5.341411 -19.98231,0.433665 l -1.33503,-1.200311 -1.76398,1.616366 c -3.00858,2.756802 -6.17297,3.979339 -10.31404,3.984712 -3.67617,0.0048 -6.69769,-1.058619 -9.55826,-3.363915 l -1.12987,-0.910561 -1.48897,0.988312 c -5.722304,3.798255 -13.456339,3.122117 -18.583382,-1.624627 -0.886989,-0.821187 -1.612688,-1.372092 -1.612688,-1.224235 0,0.147857 -0.720355,0.982514 -1.600782,1.854793 -1.78107,1.764567 -4.391766,3.265413 -6.747431,3.878987 -1.934977,0.503997 -5.860838,0.497406 -7.758615,-0.01302 z"
       id="path2633"
       style="fill:#ffffff"
       inkscape:original-d="M 0.35740072,-85.418773"
       inkscape:path-effect="#path-effect2631" />
    <path
       inkscape:original-d="M 0,0"
       inkscape:path-effect="#path-effect4384"
       d="m 66.805172,-29.320106 c -2.14511,-0.576948 -4.808644,-2.087515 -6.235885,-3.536537 l -1.275213,-1.294681 -1.340326,1.059466 c -3.864266,3.054535 -8.559244,4.072094 -13.251445,2.872031 -2.874486,-0.735174 -4.481142,-1.675963 -6.77836,-3.969144 -2.177891,-2.174047 -3.363833,-4.148082 -4.13602,-6.884554 -0.445558,-1.578917 -0.485298,-2.987661 -0.485298,-17.197916 0,-17.032021 -0.0164,-16.830226 1.65608,-20.372917 1.691587,-3.58321 5.657717,-6.833169 9.721003,-7.96566 1.089316,-0.303604 5.854938,-0.368715 26.9875,-0.368715 h 25.664583 l 1.852084,0.591079 c 1.608935,0.513482 3.477445,1.459952 4.920375,2.492356 0.34242,0.24501 0.69324,0.0999 1.85208,-0.766114 3.29526,-2.462575 6.17903,-3.36332 10.16088,-3.173762 3.91932,0.186582 6.88482,1.480815 9.93907,4.337704 l 1.29061,1.207219 1.26431,-1.122383 c 1.67725,-1.48894 4.94186,-3.049977 7.16137,-3.424346 1.22164,-0.206055 6.01623,-0.27623 15.14322,-0.221639 l 13.35558,0.07989 1.95284,0.713129 c 1.62851,0.594683 3.28525,1.541097 5.20115,2.971136 0.22662,0.169135 0.75737,-0.131083 1.7191,-0.972373 3.57056,-3.123446 8.68202,-4.356852 13.42314,-3.239037 4.14374,0.976976 7.92302,3.984569 9.88113,7.863551 1.2125,2.402002 1.55702,4.163164 1.55702,7.959842 0,3.07096 -0.0775,3.642397 -0.77706,5.730449 l -0.77705,2.319337 0.71091,1.688441 0.7109,1.688442 0.082,9.075822 c 0.0924,10.218891 0.0151,10.910541 -1.57658,14.090367 -1.87457,3.745291 -5.55789,6.721432 -9.63178,7.782549 -1.99126,0.518655 -5.65537,0.5183 -7.64808,-7.94e-4 -2.04967,-0.533865 -4.39303,-1.804431 -6.01104,-3.259169 l -1.309,-1.176896 -0.71109,0.568735 c -1.3072,1.045472 -3.34055,2.145324 -5.07675,2.746055 -2.46917,0.854337 -6.80579,0.847847 -9.31079,-0.01394 -1.9866,-0.68343 -4.38174,-2.15215 -5.77046,-3.538461 l -0.92604,-0.924441 -1.30334,1.165667 c -5.75953,5.151207 -14.52372,5.341411 -19.98231,0.433665 l -1.33503,-1.200311 -1.76398,1.616366 c -3.00858,2.756802 -6.17297,3.979339 -10.31404,3.984712 -3.67617,0.0048 -6.69769,-1.058619 -9.55826,-3.363915 l -1.12987,-0.910561 -1.48897,0.988312 c -5.722304,3.798255 -13.456339,3.122117 -18.583382,-1.624627 -0.886989,-0.821187 -1.612688,-1.372092 -1.612688,-1.224235 0,0.147857 -0.720355,0.982514 -1.600782,1.854793 -1.78107,1.764567 -4.391766,3.265413 -6.747431,3.878987 -1.934977,0.503997 -5.860838,0.497406 -7.758615,-0.01302 z"
       id="path4386"
       style="fill:#ffff00" />
    <path
       style="fill:#000000;stroke:#000000;stroke-width:0.264583;stroke-opacity:1"
       d="m 66.805172,-29.320106 c -2.14511,-0.576948 -4.808644,-2.087515 -6.235885,-3.536537 l -1.275213,-1.294681 -1.340326,1.059466 c -3.864266,3.054535 -8.559244,4.072094 -13.251445,2.872031 -2.874486,-0.735174 -4.481142,-1.675963 -6.77836,-3.969144 -2.177891,-2.174047 -3.363833,-4.148082 -4.13602,-6.884554 -0.445558,-1.578917 -0.485298,-2.987661 -0.485298,-17.197916 0,-17.032021 -0.0164,-16.830226 1.65608,-20.372917 1.691587,-3.58321 5.657717,-6.833169 9.721003,-7.96566 1.089316,-0.303604 5.854938,-0.368715 26.9875,-0.368715 h 25.664583 l 1.852084,0.591079 c 1.608935,0.513482 3.477445,1.459952 4.920375,2.492356 0.34242,0.24501 0.69324,0.0999 1.85208,-0.766114 3.29526,-2.462575 6.17903,-3.36332 10.16088,-3.173762 3.91932,0.186582 6.88482,1.480815 9.93907,4.337704 l 1.29061,1.207219 1.26431,-1.122383 c 1.67725,-1.48894 4.94186,-3.049977 7.16137,-3.424346 1.22164,-0.206055 6.01623,-0.27623 15.14322,-0.221639 l 13.35558,0.07989 1.95284,0.713129 c 1.62851,0.594683 3.28525,1.541097 5.20115,2.971136 0.22662,0.169135 0.75737,-0.131083 1.7191,-0.972373 3.57056,-3.123446 8.68202,-4.356852 13.42314,-3.239037 4.14374,0.976976 7.92302,3.984569 9.88113,7.863551 1.2125,2.402002 1.55702,4.163164 1.55702,7.959842 0,3.07096 -0.0775,3.642397 -0.77706,5.730449 l -0.77705,2.319337 0.71091,1.688441 0.7109,1.688442 0.082,9.075822 c 0.0924,10.218891 0.0151,10.910541 -1.57658,14.090367 -1.87457,3.745291 -5.55789,6.721432 -9.63178,7.782549 -1.99126,0.518655 -5.65537,0.5183 -7.64808,-7.94e-4 -2.04967,-0.533865 -4.39303,-1.804431 -6.01104,-3.259169 l -1.309,-1.176896 -0.71109,0.568735 c -1.3072,1.045472 -3.34055,2.145324 -5.07675,2.746055 -2.46917,0.854337 -6.80579,0.847847 -9.31079,-0.01394 -1.9866,-0.68343 -4.38174,-2.15215 -5.77046,-3.538461 l -0.92604,-0.924441 -1.30334,1.165667 c -5.75953,5.151207 -14.52372,5.341411 -19.98231,0.433665 l -1.33503,-1.200311 -1.76398,1.616366 c -3.00858,2.756802 -6.17297,3.979339 -10.31404,3.984712 -3.67617,0.0048 -6.69769,-1.058619 -9.55826,-3.363915 l -1.12987,-0.910561 -1.48897,0.988312 c -5.722304,3.798255 -13.456339,3.122117 -18.583382,-1.624627 -0.886989,-0.821187 -1.612688,-1.372092 -1.612688,-1.224235 0,0.147857 -0.720355,0.982514 -1.600782,1.854793 -1.78107,1.764567 -4.391766,3.265413 -6.747431,3.878987 -1.934977,0.503997 -5.860838,0.497406 -7.758615,-0.01302 z m 7.098056,-9.438315 c 1.054709,-0.639198 1.628908,-1.233384 2.237264,-2.315104 l 0.818383,-1.455208 0.07186,-11.509375 0.07189,-11.509375 h 5.748946 5.748972 l 0.132292,11.377083 c 0.147981,12.725945 0.06998,12.209656 2.107724,13.953879 2.411227,2.063917 5.647452,2.021578 8.063944,-0.1055 2.056157,-1.809914 1.993717,-1.25568 2.030257,-18.019241 0.0291,-13.35877 -0.0127,-14.987278 -0.41024,-15.937471 -0.551631,-1.318819 -1.554482,-2.391844 -2.928145,-3.133085 L 96.538041,-77.9829 72.460958,-78.06517 c -16.853667,-0.05759 -24.483483,0.0053 -25.431671,0.209699 -1.61372,0.347818 -3.286045,1.669031 -4.144645,3.274438 -0.585523,1.094799 -0.586184,1.113253 -0.586184,16.1773 0,14.985288 0.0037,15.0881 0.576157,16.157631 1.682379,3.143056 5.084154,4.362643 8.165914,2.927593 1.346888,-0.627203 2.56458,-1.821082 3.124068,-3.063018 0.207222,-0.459978 0.347028,-4.273949 0.436986,-11.921164 l 0.132292,-11.244792 h 4.894791 4.894792 l 0.132292,11.795173 0.132291,11.795172 0.797825,1.290003 c 1.097095,1.773833 2.988231,2.76861 5.263356,2.76861 1.377342,0 1.858857,-0.135575 3.054006,-0.859896 z m 44.080822,0.360858 c 1.36544,-0.620197 2.87536,-2.376456 3.27695,-3.811516 0.21534,-0.769634 0.28628,-3.441613 0.22971,-8.654029 -0.0774,-7.130452 -0.11282,-7.598193 -0.65141,-8.598958 -0.73183,-1.359858 -1.52117,-2.084406 -3.0023,-2.755892 -3.52923,-1.599994 -7.63585,0.482372 -8.47371,4.296785 -0.19703,0.897073 -0.27053,3.83394 -0.21304,8.513273 0.0832,6.770325 0.1183,7.200789 0.67151,8.234948 0.64408,1.204084 1.89947,2.373569 3.12045,2.906961 1.17221,0.51209 3.77425,0.444188 5.04184,-0.131572 z m 67.87539,-0.116427 c 1.5707,-0.829014 2.77312,-2.461697 3.15002,-4.277117 0.19839,-0.95568 0.27422,-3.87459 0.21834,-8.406051 l -0.0856,-6.941992 -0.77214,-1.393626 c -2.30978,-4.168926 -7.78912,-4.356481 -10.59757,-0.362755 l -0.80113,1.139259 -0.0846,7.849188 c -0.057,5.294159 0.0127,8.177511 0.21397,8.857821 0.38505,1.300835 1.96207,3.043142 3.31018,3.657116 1.55395,0.707723 3.97951,0.653481 5.44848,-0.121843 z m -45.00369,-0.729684 c 1.60012,-0.725432 2.33172,-1.444006 3.07514,-3.020476 l 0.62386,-1.322916 0.003,-11.046355 0.003,-11.046354 h 5.29166 5.29167 l 0.003,10.649479 c 0,6.772953 0.10523,11.034724 0.2865,11.707813 0.69323,2.573938 2.78085,4.310211 5.47631,4.554627 2.77548,0.251672 5.2509,-1.305136 6.25129,-3.931499 0.39351,-1.033113 0.43108,-2.700636 0.36322,-16.122306 l -0.0757,-14.970011 -0.80074,-1.294871 c -0.49696,-0.801931 -1.29468,-1.5997 -2.09655,-2.095611 l -1.29606,-0.800746 -12.45656,-0.08462 c -14.68218,-0.09974 -14.68874,-0.09899 -16.68881,1.901082 -1.00203,1.002019 -1.44309,1.687779 -1.67312,2.601286 -0.485,1.926195 -0.43693,28.81867 0.0545,30.451427 1.07437,3.569867 5.00999,5.390804 8.36441,3.870053 z m -22.86797,-26.065734 c 1.13602,-0.539078 2.35053,-1.710923 2.94947,-2.84584 0.2802,-0.530902 0.47943,-1.698704 0.55079,-3.228142 0.0959,-2.056103 0.0271,-2.59303 -0.48425,-3.781822 -2.22832,-5.179846 -9.61791,-4.908574 -11.52053,0.422921 -0.43543,1.220121 -0.47763,3.932674 -0.0854,5.490287 0.48125,1.911228 2.28319,3.684704 4.46868,4.398097 0.93202,0.304229 3.00249,0.07539 4.12125,-0.455501 z m 67.84443,-0.1044 c 2.79509,-1.425948 4.07803,-5.108133 3.09722,-8.889306 -0.46406,-1.788896 -1.53467,-3.117501 -3.16799,-3.931437 -2.40147,-1.196697 -5.13535,-0.811016 -7.03644,0.992664 -1.43539,1.36184 -1.87343,2.610356 -1.8801,5.358602 -0.005,2.057175 0.0914,2.590641 0.683,3.77771 1.52765,3.065603 5.22337,4.263541 8.30431,2.691767 z"
       id="path2185"
       sodipodi:nodetypes="cscsssssssscssssscssscssssssscccscssscsssscsscssscsssssccsscccccsssscscsssscssscccccsssssssssssssssscsscscsssssccccccssssccccssscssssscsssssssssscs" />
    <path
       style="fill:#000000;stroke:#000000;stroke-width:0.264583;stroke-opacity:1"
       d="m -282.11175,-28.617997 c -2.43477,-0.600731 -4.68787,-2.420914 -5.96944,-4.822455 l -0.6141,-1.150781 -0.071,-27.641701 c -0.0778,-30.310823 -0.15889,-28.64666 1.51435,-31.078625 0.9112,-1.324396 2.63495,-2.624063 4.22374,-3.184623 0.81994,-0.28929 3.54829,-0.380095 12.76905,-0.424971 10.03031,-0.04882 12.07072,0.0072 14.10757,0.387519 7.08819,1.323391 11.77932,3.504253 15.9132,7.397898 1.21244,1.141984 2.76094,2.927922 3.44112,3.96875 0.68018,1.040831 1.31664,1.98573 1.41437,2.099776 0.0977,0.114046 1.17975,-0.268862 2.40449,-0.850905 4.70155,-2.234346 9.94026,-3.170976 14.9089,-2.665566 4.13762,0.42088 7.28761,1.437669 12.1226,3.913073 0.10914,0.05588 0.19844,-2.820889 0.19844,-6.392817 0,-5.903243 0.0495,-6.626619 0.54339,-7.946752 0.71833,-1.919923 2.5409,-3.910333 4.43009,-4.838043 l 1.50881,-0.74093 h 9.12813 c 8.79661,0 9.17305,0.0208 10.36523,0.57174 1.75216,0.80977 3.52464,2.544099 4.37987,4.285611 0.7087,1.443117 0.73741,1.668251 0.86531,6.784316 l 0.1323,5.291666 h 6.07056 6.07056 l -0.0654,-1.455208 c -0.0405,-0.902454 0.14487,-2.133068 0.48809,-3.239775 0.92165,-2.971869 1.88765,-3.764764 13.27896,-10.89934 5.48231,-3.43366 10.46814,-6.41954 11.07963,-6.63529 1.58063,-0.55768 4.4539,-0.5024 6.08419,0.11706 1.70529,0.64796 3.50749,2.12113 4.33321,3.54207 0.86199,1.48337 4.85915,11.80005 5.2153,13.460689 0.30815,1.43688 0.12739,3.275372 -0.46088,4.687398 -0.20634,0.495286 -0.33928,0.936405 -0.29542,0.980268 0.0439,0.04386 0.55144,-0.08826 1.12795,-0.293595 1.57844,-0.562198 14.8381,-0.555107 16.73749,0.0089 1.20251,0.357108 1.5478,0.360235 2.89229,0.02619 2.380793,-0.591514 4.515833,-0.727523 6.818433,-0.434359 2.40553,0.306271 5.6012,1.299535 7.09946,2.206625 l 1.014041,0.613934 2.226043,-0.893805 c 3.064695,-1.230537 5.499611,-1.685422 8.99179,-1.679818 6.222286,0.01 11.001905,1.762773 14.852669,5.446789 l 1.774156,1.697328 1.070916,-0.918826 c 4.336468,-3.720608 9.226111,-6.097807 14.432378,-7.016591 1.091407,-0.192609 3.413125,-0.338818 5.159375,-0.324909 5.29008,0.04213 10.146771,1.426861 14.460697,4.122994 l 2.208053,1.380009 1.066562,-1.073274 c 0.586581,-0.590299 1.658144,-1.364401 2.38125,-1.720229 1.303602,-0.641506 1.387184,-0.64748 9.9214518,-0.709006 7.64463296,-0.05512 8.84070796,-0.121883 10.6994059,-0.597257 3.9876677,-1.019877 8.8879623,-0.969378 13.2674253,0.13672 2.165297,0.546881 6.037818,2.512717 7.775364,3.947081 2.153814,1.777995 3.851275,3.953973 5.171731,6.629672 2.161275,4.379479 2.072587,3.471263 2.172864,22.247295 0.08771,16.424005 0.08022,16.714824 -0.466963,18.177306 -0.730806,1.953241 -2.540741,3.93804 -4.442831,4.872045 l -1.50876,0.740863 H 15.433777 6.5607372 L 4.8645728,-29.346382 3.168382,-30.18695 2.0959198,-29.565608 c -1.81946004,1.054116 -3.668818,1.240253 -11.391212,1.146509 l -7.1437498,-0.08672 -1.652984,-0.763437 c -1.5444,-0.713296 -3.061917,-2.050267 -4.038495,-3.558014 l -0.399811,-0.617283 -1.716855,1.027824 c -2.453138,1.468612 -4.652434,2.386859 -7.605898,3.175596 -2.282216,0.609473 -3.077961,0.688366 -6.943249,0.688366 -3.861429,0 -4.662209,-0.07922 -6.93362,-0.685924 -2.76628,-0.738886 -6.358343,-2.308199 -8.331605,-3.639937 -1.131311,-0.763513 -1.247431,-0.791509 -1.489424,-0.359092 -0.584698,1.044797 -2.356149,2.697308 -3.674253,3.42755 l -1.399223,0.775184 h -8.598958 c -8.387506,0 -8.626086,-0.0145 -9.702173,-0.589841 l -1.103215,-0.589841 -1.278035,0.589841 c -1.237541,0.571151 -1.546304,0.589841 -9.744697,0.589841 -8.15769,0 -8.50781,-0.0209 -9.594103,-0.572725 l -1.12742,-0.572722 -1.6507,0.837305 -1.6507,0.837309 -7.34254,0.08482 c -8.25224,0.09532 -9.13767,-0.032 -11.56044,-1.662409 l -1.36314,-0.917321 -2.30236,0.767517 c -3.07584,1.025363 -6.34416,1.575049 -10.50444,1.7667 -5.20927,0.239971 -9.14918,-0.360334 -13.43165,-2.046516 l -2.05457,-0.808966 -1.03325,0.818349 c -0.56829,0.450093 -1.60826,1.083733 -2.31106,1.408088 -1.24447,0.57436 -1.51933,0.589741 -10.53822,0.589741 -8.21679,0 -9.3879,-0.05224 -10.39162,-0.463569 -1.09215,-0.447566 -1.18547,-0.445283 -2.70363,0.06615 -1.43361,0.482947 -2.2697,0.529714 -9.47025,0.529714 -8.68436,0 -9.72866,-0.141512 -11.85859,-1.606944 -1.04777,-0.720886 -2.21601,-1.927624 -2.69538,-2.784218 -0.18361,-0.328086 -0.52699,-0.215546 -2.03994,0.668573 -3.66738,2.143093 -8.15425,3.401263 -12.96351,3.635118 -11.63989,0.566002 -23.0234,-6.705026 -27.54693,-17.595151 -0.40306,-0.970339 -0.75159,-1.795958 -0.77452,-1.834711 -0.0229,-0.03875 -1.16092,0.222292 -2.52886,0.580099 -1.36795,0.357806 -3.0825,0.724593 -3.8101,0.815083 -0.72761,0.09049 -1.65648,0.227211 -2.06418,0.303821 l -0.74125,0.13929 0.16225,1.761916 c 0.26682,2.897328 -0.25502,9.300864 -0.86847,10.65712 -0.82999,1.834997 -2.28344,3.296915 -4.23204,4.256704 l -1.76835,0.871009 -8.73773,0.04566 c -4.80575,0.02511 -9.10889,-0.04592 -9.56252,-0.15784 z m 16.3023,-17.548757 -5.2e-4,-8.797396 2.448,0.09003 c 3.25112,0.119557 8.42285,-0.379995 10.82475,-1.045591 5.23517,-1.450742 8.78664,-4.91879 10.13029,-9.89235 0.66388,-2.457347 0.81291,-7.013649 0.30721,-9.392709 -1.51024,-7.105026 -7.40777,-11.483441 -17.08752,-12.686038 -1.23318,-0.153199 -6.44217,-0.278545 -11.57559,-0.278545 h -9.33351 v 25.4 25.4 h 7.14375 7.14375 l -5.3e-4,-8.797396 z m -0.26397,-25.342966 v -6.888282 l 1.32292,0.141406 c 0.7276,0.07777 1.92829,0.20637 2.66819,0.285774 3.41664,0.366662 6.27229,2.286929 6.98876,4.699543 0.21847,0.73565 0.39655,1.58383 0.39574,1.884839 -0.006,2.10163 -1.74363,4.460266 -4.0026,5.432052 -1.66847,0.717759 -4.45187,1.322268 -6.11624,1.328353 l -1.25677,0.0046 z m 49.42209,33.727551 c 2.53848,-0.513842 6.28611,-2.304658 8.38296,-4.005821 3.10723,-2.520878 5.63564,-6.447919 6.78953,-10.545299 0.74713,-2.652967 0.80863,-7.244982 0.13408,-10.01073 -3.01811,-12.374645 -16.53123,-18.918995 -27.87322,-13.498883 -7.76823,3.712284 -12.44559,12.497525 -11.20411,21.04408 1.44022,9.914747 9.70558,17.33043 19.40514,17.410308 1.27944,0.01053 3.24397,-0.166608 4.36562,-0.393655 z m -6.42922,-9.718511 c -3.53373,-1.687708 -5.71418,-7.003068 -4.93388,-12.027532 1.15856,-7.460221 6.98021,-10.83781 11.1923,-6.493523 2.10725,2.173377 3.13621,4.976606 3.13621,8.544044 0,7.135003 -4.76028,12.190378 -9.39463,9.977011 z m 39.76256,1.399945 c -0.0402,-4.802256 -0.0136,-8.725196 0.0591,-8.717642 0.0728,0.0075 0.75851,1.347062 1.52389,2.976689 0.76538,1.629624 2.64392,5.552564 4.17454,8.717642 l 2.78293,5.754688 h 7.15202 c 3.93361,0 7.1029,-0.0893 7.04285,-0.198438 -0.06,-0.10914 -2.63949,-4.754917 -5.73212,-10.323946 l -5.62297,-10.125506 5.71652,-9.265518 c 3.14408,-5.096034 5.71651,-9.320414 5.71651,-9.387512 0,-0.0671 -3.19868,-0.121997 -7.10817,-0.121997 h -7.10818 l -4.20276,7.274161 c -2.31152,4.000786 -4.2623,7.275025 -4.33506,7.276086 -0.0728,0.0011 -0.10067,-7.082311 -0.062,-15.740827 l 0.0703,-15.742753 h -6.88328 -6.88328 v 28.178125 28.178125 h 6.88616 6.88616 z m 50.84461,7.947451 c 1.22893,-0.305599 2.92557,-0.865807 3.77032,-1.244904 l 1.53589,-0.689269 v -4.886965 c 0,-3.810863 -0.0728,-4.854895 -0.33073,-4.741323 -4.61907,2.03413 -6.98674,2.609125 -10.91406,2.650511 -2.97585,0.03136 -3.27892,-0.01437 -4.83177,-0.729117 -2.37369,-1.092558 -3.82228,-2.821485 -4.39779,-5.248842 l -0.17186,-0.724879 11.84446,-0.06887 11.84446,-0.06887 -0.0718,-3.028823 c -0.21318,-8.994418 -3.63529,-16.012126 -9.27358,-19.017309 -3.38512,-1.804249 -8.13033,-2.368148 -12.65041,-1.503315 -5.55996,1.063797 -9.77213,4.768075 -11.92392,10.486176 -1.1589,3.079637 -1.66676,6.232324 -1.66676,10.346923 0,3.120933 0.0732,3.651438 0.80727,5.852322 1.09579,3.285273 2.59974,5.737336 4.99166,8.138416 1.63227,1.638528 2.47485,2.240063 4.51982,3.226779 3.59569,1.734955 5.31989,2.051291 10.45104,1.917433 3.11436,-0.08125 4.82395,-0.257305 6.46775,-0.66607 z m -15.49556,-24.343458 c 0.54864,-3.430955 2.49186,-6.075704 4.83302,-6.577793 3.26099,-0.699357 5.7246,1.135253 6.97925,5.197343 0.28756,0.931008 0.52189,1.829027 0.52074,1.995601 -0.002,0.216786 -1.77841,0.323162 -6.25237,0.374298 l -6.25028,0.07144 z m 40.70315,14.345613 0.0747,-10.781771 0.8453,-1.784458 c 1.15176,-2.431389 2.03005,-3.511275 3.39199,-4.170582 1.51123,-0.731576 2.7727,-0.511085 3.979333,0.695547 1.65145,1.651444 1.72666,2.31059 1.70968,14.982931 l -0.0152,11.310937 h 6.22307 6.223078 v -10.068081 c 0,-11.013575 0.140107,-12.379481 1.531107,-14.92663 0.932198,-1.70701 2.139582,-2.522262 3.73354,-2.520966 2.367841,0.0019 3.688361,1.564175 4.248391,5.026094 0.162608,1.005197 0.272942,6.062321 0.265533,12.170833 l -0.01267,10.451042 h 5.898822 5.898822 l -0.0051,-14.022917 c -0.0045,-12.375597 -0.05852,-14.232993 -0.459761,-15.811217 -1.444371,-5.681202 -4.866833,-8.525973 -10.912213,-9.070306 -3.203538,-0.288448 -7.625969,1.016744 -9.867331,2.912148 -0.891508,0.753901 -1.906627,2.443483 -1.906627,3.173418 0,0.675785 -0.379701,0.461507 -0.902531,-0.509326 -0.76343,-1.417614 -3.15856,-3.68023 -4.85021,-4.581869 -2.11418,-1.126845 -4.62102,-1.562135 -6.73369,-1.169244 -2.429763,0.45186 -4.335023,1.530516 -6.497423,3.678489 l -1.91824,1.905429 v -2.765325 -2.765322 h -5.82084 -5.82083 v 19.711459 19.711458 h 5.81232 5.81232 l 0.0747,-10.781771 z m 74.157998,9.993823 c 6.736636,-2.108721 11.865107,-7.540439 13.628185,-14.43401 0.716835,-2.802803 0.720698,-7.219439 0.0087,-10.003158 -1.436873,-5.618115 -5.377127,-10.53153 -10.438421,-13.016542 -1.322626,-0.649386 -3.178678,-1.383507 -4.124563,-1.631379 -2.355911,-0.617379 -7.21378,-0.605157 -9.509694,0.02392 -9.561126,2.619754 -15.601606,11.066659 -15.022774,21.007592 0.515612,8.855186 6.987637,16.484232 15.668926,18.4701 2.356295,0.539006 7.426095,0.323297 9.789584,-0.416529 z m -7.671692,-9.161195 c -2.20151,-0.805662 -4.274677,-3.591653 -5.017386,-6.742528 -1.107533,-4.698629 0.126772,-9.618099 3.079221,-12.272605 4.33996,-3.901996 9.787181,-0.430035 10.884699,6.937713 0.589095,3.954561 -0.570309,8.00965 -2.971509,10.393292 -2.045756,2.030769 -3.730337,2.505591 -5.975025,1.684128 z m 38.5582508,-1.295649 c 0.06903,-11.005777 0.07556,-11.124279 0.679979,-12.33914 2.32529096,-4.673706 7.080488,-5.89653 9.154742,-2.354199 1.0883635,1.858664 1.2067117,3.313822 1.2110508,14.891777 l 0.00413,11.046354 h 6.6145804 6.614584 l -0.01402,-11.972396 c -0.01667,-14.228556 -0.216535,-18.252607 -1.008592,-20.306771 -1.218856,-3.160998 -3.90525,-5.621369 -7.306283,-6.69154 -2.664249,-0.838338 -8.0507684,-0.823193 -10.212917,0.02872 -1.7925522,0.706279 -3.28969724,1.946995 -4.49759924,3.727258 -0.49794596,0.73393 -1.00202996,1.337487 -1.12016596,1.341239 -0.118137,0.0038 -0.18968,-1.034974 -0.158989,-2.308281 l 0.05583,-2.315104 -6.124893,-0.07102 -6.1248658,-0.07102 v 19.324336 19.324336 l 6.0818708,-0.07102 6.081898,-0.07102 z M -140.87328,-84.362044 c 5.42831,-2.562643 9.9567,-4.739238 10.0631,-4.836882 0.22703,-0.208354 -3.53333,-10.068541 -3.84309,-10.077116 -0.23954,-0.0066 -17.85889,11.01467 -18.40007,11.509657 -0.29273,0.267751 -0.13661,0.992315 0.9036,4.193683 0.69161,2.128507 1.29108,3.87001 1.33215,3.87001 0.0411,0 4.51601,-2.096709 9.94431,-4.659352 z"
       id="path3754"
       sodipodi:nodetypes="ssccccscsscsssscscscssccccssssssssssssscssscsssscsssssssssscccccsscsscssssssscsscssscccsscssscssssssssssscssscssscsssccsssccscccccccccssscssccsssssssssssssccsscscscssscscsccccccccsscscssscccssssscsssssssscscsccsssccccssssscccssssssssscccccccccccsscssssssssssssssssscccssssssscccccccssscssss" />
  </g>
</svg>
